<svg width="250" height="249" viewBox="0 0 250 249" fill="none" xmlns="http://www.w3.org/2000/svg">
<path d="M119.783 6.63721C127.912 6.63552 136.02 7.45704 143.983 9.0892C159.355 12.2557 173.95 18.4286 186.929 27.2532C204.911 39.4408 219.277 56.2472 228.519 75.9059C237.761 95.5646 241.537 117.35 239.449 138.972C237.362 160.594 229.489 181.255 216.657 198.783C203.825 216.311 186.509 230.058 166.528 238.581C159.265 241.667 151.713 244.024 143.983 245.615C127.222 249.014 109.929 248.802 93.2556 244.994C76.5825 241.185 60.9123 233.868 47.2889 223.528C33.6655 213.189 22.4017 200.066 14.2477 185.032C6.09364 169.998 1.23669 153.4 0.000335693 136.342C13.1435 139.417 26.7961 139.613 40.0223 136.918C51.8916 134.487 63.1661 129.743 73.2023 122.956C88.121 112.885 99.7989 98.7044 106.821 82.1312C109.194 76.5179 111.005 70.6834 112.228 64.7132C114.834 51.9222 114.738 38.7278 111.945 25.9762C110.54 19.5993 108.462 13.3895 105.745 7.4512C110.405 6.90865 115.092 6.63686 119.783 6.63721Z" fill="#713FFD"/>
<g filter="url(#filter0_f_356_2)">
<path d="M201.052 43.9551C174.091 19.6793 138.772 14.9522 122.164 33.3968C105.556 51.8414 113.949 86.4731 140.91 110.749C167.871 135.025 203.191 139.752 219.798 121.307C236.406 102.863 228.013 68.2308 201.052 43.9551Z" fill="#A586FC"/>
</g>
<defs>
<filter id="filter0_f_356_2" x="93.6377" y="2.14551" width="154.687" height="150.413" filterUnits="userSpaceOnUse" color-interpolation-filters="sRGB">
<feFlood flood-opacity="0" result="BackgroundImageFix"/>
<feBlend mode="normal" in="SourceGraphic" in2="BackgroundImageFix" result="shape"/>
<feGaussianBlur stdDeviation="10" result="effect1_foregroundBlur_356_2"/>
</filter>
</defs>
</svg>
