<svg width="433" height="342" viewBox="0 0 433 342" fill="none" xmlns="http://www.w3.org/2000/svg">
<path d="M123.701 218.359C124.332 218.377 130.736 243.607 130.736 253.411C130.736 263.215 127.586 271.164 123.701 271.164C119.816 271.164 116.666 263.216 116.666 253.412C116.666 243.608 123.066 218.342 123.701 218.359Z" fill="#42A0F0"/>
<path d="M122.629 247.781C123.656 248.138 123.969 250.358 123.327 252.742C122.685 255.125 121.331 256.767 120.303 256.411C119.275 256.055 118.962 253.833 119.605 251.45C120.248 249.067 121.6 247.425 122.629 247.781Z" fill="white"/>
<path d="M183.632 218.359C184.263 218.377 190.667 243.607 190.667 253.411C190.667 263.215 187.517 271.164 183.632 271.164C179.747 271.164 176.597 263.216 176.597 253.412C176.597 243.608 182.997 218.342 183.632 218.359Z" fill="#42A0F0"/>
<path d="M182.559 247.781C183.587 248.138 183.899 250.358 183.257 252.742C182.615 255.125 181.261 256.767 180.233 256.411C179.206 256.055 178.892 253.833 179.535 251.45C180.178 249.067 181.53 247.425 182.559 247.781Z" fill="white"/>
<path d="M243.563 218.359C244.194 218.377 250.598 243.607 250.598 253.411C250.598 263.215 247.448 271.164 243.563 271.164C239.678 271.164 236.528 263.216 236.528 253.412C236.528 243.608 242.928 218.342 243.563 218.359Z" fill="#42A0F0"/>
<path d="M242.491 247.781C243.518 248.138 243.831 250.358 243.189 252.742C242.547 255.125 241.193 256.767 240.165 256.411C239.137 256.055 238.824 253.833 239.467 251.45C240.11 249.067 241.462 247.425 242.491 247.781Z" fill="white"/>
<path d="M303.494 215.359C304.125 215.377 310.529 240.607 310.529 250.411C310.529 260.215 307.379 268.164 303.494 268.164C299.609 268.164 296.459 260.216 296.459 250.412C296.459 240.608 302.859 215.342 303.494 215.359Z" fill="#42A0F0"/>
<path d="M302.422 244.781C303.449 245.138 303.762 247.358 303.12 249.742C302.478 252.125 301.124 253.767 300.096 253.411C299.068 253.055 298.755 250.833 299.398 248.45C300.041 246.067 301.393 244.425 302.422 244.781Z" fill="white"/>
<path d="M211.834 285.359C212.465 285.377 218.869 310.607 218.869 320.411C218.869 330.215 215.719 338.164 211.834 338.164C207.949 338.164 204.799 330.216 204.799 320.412C204.799 310.608 211.199 285.342 211.834 285.359Z" fill="#42A0F0"/>
<path d="M210.761 314.781C211.789 315.138 212.101 317.358 211.459 319.742C210.818 322.125 209.463 323.767 208.436 323.411C207.408 323.055 207.095 320.833 207.737 318.45C208.38 316.067 209.733 314.425 210.761 314.781Z" fill="white"/>
<path d="M271.764 285.359C272.395 285.377 278.799 310.607 278.799 320.411C278.799 330.215 275.649 338.164 271.764 338.164C267.879 338.164 264.729 330.216 264.729 320.412C264.729 310.608 271.129 285.342 271.764 285.359Z" fill="#42A0F0"/>
<path d="M270.692 314.781C271.72 315.138 272.032 317.358 271.39 319.742C270.748 322.125 269.394 323.767 268.366 323.411C267.338 323.055 267.025 320.833 267.668 318.45C268.311 316.067 269.663 314.425 270.692 314.781Z" fill="white"/>
<path d="M335.222 285.359C335.853 285.377 342.257 310.607 342.257 320.411C342.257 330.215 339.107 338.164 335.222 338.164C331.337 338.164 328.187 330.216 328.187 320.412C328.187 310.608 334.587 285.342 335.222 285.359Z" fill="#42A0F0"/>
<path d="M334.149 314.781C335.177 315.138 335.489 317.358 334.847 319.742C334.205 322.125 332.851 323.767 331.823 323.411C330.795 323.055 330.482 320.833 331.125 318.45C331.768 316.067 333.12 314.425 334.149 314.781Z" fill="white"/>
<path d="M151.904 288.359C152.535 288.377 158.939 313.607 158.939 323.411C158.939 333.215 155.789 341.164 151.904 341.164C148.019 341.164 144.869 333.216 144.869 323.412C144.869 313.608 151.269 288.342 151.904 288.359Z" fill="#42A0F0"/>
<path d="M150.832 317.781C151.859 318.138 152.172 320.358 151.53 322.742C150.888 325.125 149.534 326.767 148.506 326.411C147.478 326.055 147.165 323.833 147.808 321.45C148.451 319.067 149.803 317.425 150.832 317.781Z" fill="white"/>
<path d="M95.4979 285.359C96.1289 285.377 102.533 310.607 102.533 320.411C102.533 330.215 99.3829 338.164 95.4979 338.164C91.6129 338.164 88.4629 330.216 88.4629 320.412C88.4629 310.608 94.8629 285.342 95.4979 285.359Z" fill="#42A0F0"/>
<path d="M94.4255 314.781C95.453 315.138 95.7654 317.358 95.1235 319.742C94.4816 322.125 93.1274 323.767 92.0996 323.411C91.0718 323.055 90.7587 320.833 91.4015 318.45C92.0444 316.067 93.3967 314.425 94.4255 314.781Z" fill="white"/>
<path d="M103.268 6.72324C110.278 6.72148 117.27 7.42976 124.137 8.83723C137.39 11.5669 149.974 16.8889 161.164 24.4972C176.667 35.0049 189.053 49.4947 197.021 66.4437C204.989 83.3927 208.244 102.175 206.444 120.817C204.644 139.459 197.856 157.271 186.793 172.383C175.73 187.495 160.801 199.347 143.574 206.695C137.312 209.356 130.8 211.388 124.136 212.76C109.685 215.69 94.7754 215.508 80.4005 212.224C66.0257 208.941 52.5155 202.632 40.77 193.718C29.0244 184.804 19.3132 173.489 12.2832 160.528C5.25319 147.566 1.06578 133.256 -7.62939e-05 118.549C11.3314 121.201 23.1023 121.372 34.5059 119.049C44.7389 116.954 54.4592 112.863 63.1119 107.012C75.9742 98.329 86.0422 86.1018 92.0959 71.8122C94.1414 66.9727 95.7027 61.9425 96.7569 56.7952C99.004 45.7666 98.9209 34.3899 96.5129 23.3952C95.3016 17.8975 93.5102 12.5439 91.1689 7.42424C95.185 6.95689 99.2248 6.72283 103.268 6.72324V6.72324Z" fill="#713FFD"/>
<g filter="url(#filter0_f_356_99)">
<path d="M173.339 38.8963C150.095 17.9668 119.644 13.8915 105.325 29.7939C91.0067 45.6964 98.2426 75.5545 121.487 96.484C144.732 117.414 175.183 121.489 189.501 105.586C203.82 89.6839 196.584 59.8258 173.339 38.8963Z" fill="#A586FC"/>
</g>
<g filter="url(#filter1_d_356_99)">
<path d="M302.345 278.002H110.913C92.3426 277.988 74.4976 270.791 61.1137 257.917C47.7298 245.043 39.8447 227.491 39.1092 208.935C38.3737 190.38 44.8448 172.259 57.1677 158.366C69.4906 144.473 86.71 135.886 105.221 134.402C107.861 115.762 116.278 98.4188 129.289 84.8121C142.299 71.2054 159.248 62.0201 177.752 58.5485C196.255 55.0769 215.381 57.4937 232.439 65.4589C249.497 73.424 263.628 86.5367 272.845 102.952C289.75 97.1003 308.015 96.4164 325.31 100.988C342.605 105.559 358.146 115.179 369.952 128.619C381.757 142.06 389.292 158.712 391.594 176.452C393.896 194.192 390.862 212.216 382.879 228.225C378.194 242.69 369.047 255.298 356.751 264.241C344.455 273.184 329.641 278.002 314.437 278.002H302.345Z" fill="url(#paint0_linear_356_99)"/>
<path d="M314.437 277.002C322.157 277.002 329.748 275.769 336.998 273.338C344.009 270.987 350.59 267.556 356.56 263.141C362.462 258.777 367.635 253.549 371.936 247.603C376.29 241.582 379.652 234.959 381.928 227.917L381.951 227.845L381.985 227.777C385.011 221.73 387.341 215.333 388.911 208.763C390.526 202.002 391.345 195.017 391.345 188.002C391.345 181.963 390.737 175.928 389.537 170.064C388.368 164.35 386.623 158.73 384.352 153.359C382.121 148.086 379.361 143 376.146 138.242C372.962 133.529 369.306 129.097 365.278 125.069C361.25 121.042 356.819 117.385 352.106 114.201C347.348 110.987 342.261 108.226 336.988 105.995C331.617 103.724 325.997 101.979 320.283 100.81C314.42 99.6101 308.385 99.0017 302.345 99.0017C292.346 99.0017 282.531 100.647 273.172 103.893L272.383 104.167L271.973 103.438C264.357 89.8965 253.279 78.5239 239.937 70.5501C233.189 66.5175 225.94 63.4012 218.391 61.2879C210.602 59.1077 202.512 58.0022 194.345 58.0022C183.361 58.0022 172.638 59.9792 162.475 63.8782C152.657 67.6449 143.65 73.0859 135.705 80.0502C127.806 86.9744 121.251 95.1444 116.221 104.333C111.069 113.747 107.701 123.909 106.211 134.537L106.1 135.333L105.299 135.395C96.3408 136.096 87.7219 138.455 79.6818 142.405C71.8694 146.244 64.8932 151.436 58.947 157.837C46.7289 170.989 40 188.125 40 206.089C40 215.663 41.8748 224.949 45.5723 233.691C47.3495 237.893 49.5491 241.945 52.1102 245.736C54.6472 249.491 57.5607 253.023 60.7699 256.232C63.9791 259.441 67.5104 262.355 71.2655 264.892C75.0565 267.453 79.109 269.652 83.3106 271.429C92.0525 275.127 101.339 277.002 110.913 277.002H302.345H314.437ZM314.437 278.002H302.345H110.913C71.1966 278.002 39 245.805 39 206.089C39 168.288 68.1646 137.299 105.221 134.398C111.35 90.6596 148.917 57.0022 194.345 57.0022C228.048 57.0022 257.422 75.5254 272.845 102.948C282.087 99.7429 292.012 98.0017 302.345 98.0017C352.051 98.0017 392.345 138.297 392.345 188.002C392.345 202.458 388.936 216.121 382.879 228.225C373.544 257.11 346.431 278.002 314.437 278.002Z" fill="white" fill-opacity="0.5"/>
</g>
<defs>
<filter id="filter0_f_356_99" x="77.9736" y="0.0932617" width="138.879" height="135.194" filterUnits="userSpaceOnUse" color-interpolation-filters="sRGB">
<feFlood flood-opacity="0" result="BackgroundImageFix"/>
<feBlend mode="normal" in="SourceGraphic" in2="BackgroundImageFix" result="shape"/>
<feGaussianBlur stdDeviation="10" result="effect1_foregroundBlur_356_99"/>
</filter>
<filter id="filter1_d_356_99" x="19" y="29.0022" width="413.346" height="281" filterUnits="userSpaceOnUse" color-interpolation-filters="sRGB">
<feFlood flood-opacity="0" result="BackgroundImageFix"/>
<feColorMatrix in="SourceAlpha" type="matrix" values="0 0 0 0 0 0 0 0 0 0 0 0 0 0 0 0 0 0 127 0" result="hardAlpha"/>
<feOffset dx="10" dy="2"/>
<feGaussianBlur stdDeviation="15"/>
<feColorMatrix type="matrix" values="0 0 0 0 0.258824 0 0 0 0 0.627451 0 0 0 0 0.941176 0 0 0 0.596 0"/>
<feBlend mode="normal" in2="BackgroundImageFix" result="effect1_dropShadow_356_99"/>
<feBlend mode="normal" in="SourceGraphic" in2="effect1_dropShadow_356_99" result="shape"/>
</filter>
<linearGradient id="paint0_linear_356_99" x1="215.698" y1="57.0046" x2="318.341" y2="305.168" gradientUnits="userSpaceOnUse">
<stop stop-color="white" stop-opacity="0.604"/>
<stop offset="1" stop-color="white" stop-opacity="0.2"/>
</linearGradient>
</defs>
</svg>
