<svg width="420" height="346" viewBox="0 0 420 346" fill="none" xmlns="http://www.w3.org/2000/svg">
<path d="M104.819 293.001C106.419 293.019 122.637 318.342 122.637 328.183C122.637 332.909 120.76 337.441 117.418 340.782C114.077 344.124 109.545 346.001 104.819 346.001C100.093 346.001 95.5613 344.124 92.2197 340.782C88.8782 337.441 87.001 332.909 87.001 328.183C87.001 318.343 103.22 292.983 104.819 293.001Z" fill="#42A0F0"/>
<path d="M91.2341 334.843C93.0145 335.387 95.2772 333.148 96.2881 329.842C97.2989 326.536 96.675 323.414 94.8946 322.87C93.1142 322.326 90.8515 324.565 89.8407 327.871C88.8298 331.177 89.4537 334.298 91.2341 334.843Z" fill="white"/>
<path d="M197.819 293.001C199.419 293.019 215.637 318.342 215.637 328.183C215.637 332.909 213.76 337.441 210.418 340.782C207.077 344.124 202.545 346.001 197.819 346.001C193.093 346.001 188.561 344.124 185.22 340.782C181.878 337.441 180.001 332.909 180.001 328.183C180.001 318.343 196.22 292.983 197.819 293.001Z" fill="#42A0F0"/>
<path d="M184.234 334.843C186.015 335.387 188.277 333.148 189.288 329.842C190.299 326.536 189.675 323.414 187.895 322.87C186.114 322.326 183.851 324.565 182.841 327.871C181.83 331.177 182.454 334.298 184.234 334.843Z" fill="white"/>
<path d="M290.819 293.001C292.419 293.019 308.637 318.342 308.637 328.183C308.637 332.909 306.76 337.441 303.418 340.782C300.077 344.124 295.545 346.001 290.819 346.001C286.093 346.001 281.561 344.124 278.22 340.782C274.878 337.441 273.001 332.909 273.001 328.183C273.001 318.343 289.22 292.983 290.819 293.001Z" fill="#42A0F0"/>
<path d="M277.234 334.843C279.015 335.387 281.277 333.148 282.288 329.842C283.299 326.536 282.675 323.414 280.895 322.87C279.114 322.326 276.851 324.565 275.841 327.871C274.83 331.177 275.454 334.298 277.234 334.843Z" fill="white"/>
<path d="M151.819 215.001C153.419 215.019 169.637 240.342 169.637 250.183C169.637 254.909 167.76 259.441 164.418 262.782C161.077 266.124 156.545 268.001 151.819 268.001C147.093 268.001 142.561 266.124 139.22 262.782C135.878 259.441 134.001 254.909 134.001 250.183C134.001 240.343 150.22 214.983 151.819 215.001Z" fill="#42A0F0"/>
<path d="M138.234 256.843C140.015 257.387 142.277 255.148 143.288 251.842C144.299 248.536 143.675 245.414 141.895 244.87C140.114 244.326 137.851 246.565 136.841 249.871C135.83 253.177 136.454 256.298 138.234 256.843Z" fill="white"/>
<path d="M249.819 215.001C251.419 215.019 267.637 240.342 267.637 250.183C267.637 254.909 265.76 259.441 262.418 262.782C259.077 266.124 254.545 268.001 249.819 268.001C245.093 268.001 240.561 266.124 237.22 262.782C233.878 259.441 232.001 254.909 232.001 250.183C232.001 240.343 248.22 214.983 249.819 215.001Z" fill="#42A0F0"/>
<path d="M236.234 256.843C238.015 257.387 240.277 255.148 241.288 251.842C242.299 248.536 241.675 245.414 239.895 244.87C238.114 244.326 235.851 246.565 234.841 249.871C233.83 253.177 234.454 256.298 236.234 256.843Z" fill="white"/>
<path d="M103.268 6.72311C110.278 6.72135 117.27 7.42963 124.137 8.83711C137.39 11.5668 149.974 16.8888 161.164 24.4971C176.667 35.0048 189.053 49.4945 197.021 66.4436C204.989 83.3926 208.244 102.175 206.444 120.817C204.644 139.458 197.856 157.271 186.793 172.383C175.73 187.495 160.801 199.347 143.574 206.695C137.312 209.356 130.8 211.388 124.136 212.76C109.685 215.69 94.7754 215.508 80.4005 212.224C66.0257 208.941 52.5155 202.632 40.77 193.718C29.0244 184.804 19.3132 173.489 12.2832 160.528C5.25319 147.566 1.06578 133.256 -7.62939e-05 118.549C11.3314 121.201 23.1023 121.372 34.5059 119.049C44.7389 116.953 54.4592 112.863 63.1119 107.012C75.9742 98.3288 86.0422 86.1017 92.0959 71.8121C94.1414 66.9726 95.7027 61.9424 96.7569 56.7951C99.004 45.7664 98.9209 34.3898 96.5129 23.3951C95.3016 17.8974 93.5102 12.5437 91.1689 7.42412C95.185 6.95677 99.2248 6.7227 103.268 6.72311V6.72311Z" fill="#713FFD"/>
<g filter="url(#filter0_f_356_14)">
<path d="M173.339 38.8961C150.095 17.9666 119.644 13.8914 105.325 29.7938C91.0067 45.6962 98.2426 75.5544 121.487 96.4839C144.732 117.413 175.183 121.489 189.501 105.586C203.82 89.6838 196.584 59.8256 173.339 38.8961Z" fill="#A586FC"/>
</g>
<g filter="url(#filter1_d_356_14)">
<path d="M289.999 282.002H98.5673C79.9969 281.988 62.1519 274.791 48.768 261.917C35.3841 249.043 27.499 231.491 26.7635 212.935C26.028 194.38 32.4991 176.259 44.822 162.366C57.1449 148.473 74.3643 139.886 92.8753 138.402C95.5151 119.762 103.932 102.419 116.943 88.8121C129.954 75.2054 146.903 66.0201 165.406 62.5485C183.909 59.0769 203.035 61.4937 220.093 69.4589C237.151 77.424 251.282 90.5367 260.499 106.952C277.405 101.1 295.67 100.416 312.965 104.988C330.26 109.56 345.802 119.18 357.607 132.621C369.413 146.062 376.947 162.715 379.249 180.455C381.551 198.196 378.516 216.22 370.531 232.229C365.846 246.693 356.699 259.3 344.403 268.242C332.107 277.184 317.295 282.001 302.091 282.002H289.999Z" fill="url(#paint0_linear_356_14)"/>
<path d="M302.091 281.002C309.811 281.002 317.4 279.769 324.65 277.338C331.66 274.987 338.242 271.557 344.212 267.142C350.113 262.778 355.286 257.55 359.587 251.605C363.941 245.585 367.303 238.962 369.58 231.921L369.603 231.849L369.637 231.781C372.664 225.733 374.995 219.335 376.565 212.765C378.181 206.005 379 199.019 379 192.002C379 185.963 378.391 179.928 377.191 174.064C376.022 168.35 374.278 162.73 372.006 157.359C369.776 152.086 367.015 147 363.8 142.242C360.616 137.529 356.96 133.097 352.932 129.069C348.904 125.042 344.472 121.385 339.76 118.201C335.002 114.987 329.915 112.226 324.642 109.995C319.271 107.724 313.651 105.979 307.937 104.81C302.074 103.61 296.039 103.002 290 103.002C280 103.002 270.185 104.647 260.827 107.893L260.037 108.167L259.627 107.438C252.011 93.8964 240.934 82.5238 227.591 74.55C220.844 70.5174 213.594 67.4012 206.045 65.2879C198.256 63.1077 190.166 62.0022 182 62.0022C171.015 62.0022 160.292 63.9792 150.129 67.8782C140.311 71.6449 131.304 77.0859 123.36 84.0502C115.46 90.9744 108.905 99.1444 103.876 108.333C98.7228 117.747 95.3549 127.909 93.8656 138.537L93.7541 139.333L92.9533 139.395C83.9951 140.096 75.3762 142.455 67.3361 146.405C59.5237 150.244 52.5475 155.436 46.6013 161.837C34.3832 174.989 27.6543 192.125 27.6543 210.089C27.6543 219.663 29.5291 228.949 33.2266 237.691C35.0038 241.893 37.2034 245.945 39.7645 249.736C42.3015 253.491 45.215 257.023 48.4242 260.232C51.6334 263.441 55.1647 266.355 58.9198 268.892C62.7108 271.453 66.7633 273.652 70.9649 275.429C79.7068 279.127 88.9934 281.002 98.567 281.002H290H302.091ZM302.091 282.002H290H98.567C58.8509 282.002 26.6543 249.805 26.6543 210.089C26.6543 172.288 55.8189 141.299 92.8753 138.398C99.0047 94.6596 136.571 61.0022 182 61.0022C215.702 61.0022 245.077 79.5253 260.499 106.948C269.741 103.743 279.667 102.002 290 102.002C339.705 102.002 380 142.297 380 192.002C380 206.461 376.59 220.123 370.531 232.229C361.194 261.111 334.082 282.002 302.091 282.002Z" fill="white" fill-opacity="0.5"/>
</g>
<defs>
<filter id="filter0_f_356_14" x="77.9736" y="0.0932617" width="138.879" height="135.194" filterUnits="userSpaceOnUse" color-interpolation-filters="sRGB">
<feFlood flood-opacity="0" result="BackgroundImageFix"/>
<feBlend mode="normal" in="SourceGraphic" in2="BackgroundImageFix" result="shape"/>
<feGaussianBlur stdDeviation="10" result="effect1_foregroundBlur_356_14"/>
</filter>
<filter id="filter1_d_356_14" x="6.6543" y="33.0022" width="413.346" height="281" filterUnits="userSpaceOnUse" color-interpolation-filters="sRGB">
<feFlood flood-opacity="0" result="BackgroundImageFix"/>
<feColorMatrix in="SourceAlpha" type="matrix" values="0 0 0 0 0 0 0 0 0 0 0 0 0 0 0 0 0 0 127 0" result="hardAlpha"/>
<feOffset dx="10" dy="2"/>
<feGaussianBlur stdDeviation="15"/>
<feColorMatrix type="matrix" values="0 0 0 0 0.258824 0 0 0 0 0.627451 0 0 0 0 0.941176 0 0 0 0.596 0"/>
<feBlend mode="normal" in2="BackgroundImageFix" result="effect1_dropShadow_356_14"/>
<feBlend mode="normal" in="SourceGraphic" in2="effect1_dropShadow_356_14" result="shape"/>
</filter>
<linearGradient id="paint0_linear_356_14" x1="203.352" y1="61.0046" x2="305.995" y2="309.168" gradientUnits="userSpaceOnUse">
<stop stop-color="white" stop-opacity="0.604"/>
<stop offset="1" stop-color="white" stop-opacity="0.2"/>
</linearGradient>
</defs>
</svg>
