<svg width="433" height="364" viewBox="0 0 433 364" fill="none" xmlns="http://www.w3.org/2000/svg">
<path d="M172.613 200.467C176.526 200.511 216.226 262.496 216.226 286.583C216.226 298.15 211.631 309.243 203.452 317.422C195.273 325.601 184.18 330.196 172.613 330.196C161.046 330.196 149.953 325.601 141.774 317.422C133.595 309.243 129 298.15 129 286.583C129 262.496 168.7 200.424 172.613 200.467Z" fill="#42A0F0"/>
<path d="M139.36 302.886C143.717 304.219 149.256 298.738 151.73 290.644C154.205 282.551 152.678 274.91 148.32 273.578C143.962 272.245 138.424 277.726 135.949 285.82C133.475 293.913 135.002 301.554 139.36 302.886Z" fill="white"/>
<path d="M275.359 282.209C277.824 282.238 302.839 321.293 302.839 336.47C302.795 343.73 299.881 350.677 294.732 355.795C289.583 360.913 282.618 363.785 275.358 363.785C268.099 363.785 261.134 360.913 255.985 355.795C250.836 350.677 247.922 343.73 247.878 336.47C247.878 321.293 272.893 282.182 275.359 282.209Z" fill="#42A0F0"/>
<path d="M254.406 346.743C257.152 347.582 260.642 344.129 262.201 339.03C263.76 333.93 262.798 329.116 260.052 328.276C257.306 327.437 253.816 330.89 252.257 335.989C250.698 341.089 251.66 345.903 254.406 346.743Z" fill="white"/>
<path d="M103.268 6.72311C110.278 6.72135 117.27 7.42963 124.137 8.83711C137.39 11.5668 149.974 16.8888 161.164 24.4971C176.667 35.0048 189.053 49.4945 197.021 66.4436C204.989 83.3926 208.244 102.175 206.444 120.817C204.644 139.458 197.856 157.271 186.793 172.383C175.73 187.495 160.801 199.347 143.574 206.695C137.312 209.356 130.8 211.388 124.136 212.76C109.685 215.69 94.7754 215.508 80.4005 212.224C66.0257 208.941 52.5155 202.632 40.77 193.718C29.0244 184.804 19.3132 173.489 12.2832 160.528C5.25319 147.566 1.06578 133.256 -7.62939e-05 118.549C11.3314 121.201 23.1023 121.372 34.5059 119.049C44.7389 116.953 54.4592 112.863 63.1119 107.012C75.9742 98.3288 86.0422 86.1017 92.0959 71.8121C94.1414 66.9726 95.7027 61.9424 96.7569 56.7951C99.004 45.7664 98.9209 34.3898 96.5129 23.3951C95.3016 17.8974 93.5102 12.5437 91.1689 7.42412C95.185 6.95677 99.2248 6.7227 103.268 6.72311V6.72311Z" fill="#713FFD"/>
<g filter="url(#filter0_f_356_152)">
<path d="M173.339 38.8961C150.095 17.9666 119.644 13.8914 105.325 29.7938C91.0067 45.6962 98.2426 75.5544 121.487 96.4839C144.732 117.413 175.183 121.489 189.501 105.586C203.82 89.6838 196.584 59.8256 173.339 38.8961Z" fill="#A586FC"/>
</g>
<g filter="url(#filter1_d_356_152)">
<path d="M302.346 282.002H110.914C92.3436 281.988 74.4986 274.791 61.1147 261.917C47.7308 249.043 39.8457 231.491 39.1102 212.936C38.3747 194.38 44.8457 176.259 57.1687 162.366C69.4916 148.473 86.711 139.886 105.222 138.402C107.862 119.762 116.279 102.419 129.29 88.8122C142.3 75.2055 159.249 66.0202 177.753 62.5486C196.256 59.077 215.382 61.4938 232.44 69.459C249.498 77.4242 263.629 90.5368 272.846 106.952C289.751 101.1 308.016 100.417 325.311 104.988C342.606 109.559 358.147 119.179 369.953 132.619C381.758 146.06 389.293 162.712 391.595 180.452C393.897 198.192 390.863 216.216 382.88 232.225C378.195 246.69 369.048 259.299 356.752 268.242C344.456 277.184 329.642 282.002 314.438 282.002H302.346Z" fill="url(#paint0_linear_356_152)"/>
<path d="M314.438 281.002C322.158 281.002 329.749 279.769 336.999 277.338C344.01 274.987 350.591 271.556 356.561 267.141C362.463 262.777 367.636 257.549 371.937 251.603C376.291 245.582 379.653 238.959 381.928 231.917L381.952 231.845L381.986 231.777C385.012 225.73 387.342 219.333 388.912 212.763C390.527 206.002 391.346 199.017 391.346 192.002C391.346 185.963 390.738 179.928 389.538 174.064C388.369 168.35 386.624 162.73 384.353 157.359C382.122 152.086 379.362 147 376.147 142.242C372.963 137.529 369.307 133.097 365.279 129.069C361.251 125.042 356.82 121.385 352.107 118.201C347.349 114.987 342.262 112.226 336.989 109.995C331.618 107.724 325.998 105.979 320.284 104.81C314.421 103.61 308.386 103.002 302.346 103.002C292.347 103.002 282.532 104.647 273.173 107.893L272.384 108.167L271.974 107.438C264.358 93.8965 253.28 82.5239 239.938 74.5501C233.19 70.5175 225.941 67.4012 218.392 65.2879C210.603 63.1077 202.513 62.0022 194.346 62.0022C183.362 62.0022 172.639 63.9792 162.476 67.8782C152.658 71.6449 143.651 77.0859 135.706 84.0502C127.807 90.9744 121.252 99.1444 116.222 108.333C111.069 117.747 107.702 127.909 106.212 138.537L106.101 139.333L105.3 139.395C96.3418 140.096 87.7229 142.455 79.6828 146.405C71.8703 150.244 64.8942 155.436 58.948 161.837C46.7298 174.989 40.001 192.125 40.001 210.089C40.001 219.663 41.8757 228.949 45.5732 237.691C47.3504 241.893 49.5501 245.945 52.1112 249.736C54.6482 253.491 57.5617 257.023 60.7709 260.232C63.9801 263.441 67.5113 266.355 71.2665 268.892C75.0574 271.453 79.11 273.652 83.3116 275.429C92.0534 279.127 101.34 281.002 110.914 281.002H302.346H314.438ZM314.438 282.002H302.346H110.914C71.1976 282.002 39.001 249.805 39.001 210.089C39.001 172.288 68.1656 141.299 105.222 138.398C111.351 94.6596 148.918 61.0022 194.346 61.0022C228.048 61.0022 257.423 79.5254 272.846 106.948C282.088 103.743 292.013 102.002 302.346 102.002C352.052 102.002 392.346 142.297 392.346 192.002C392.346 206.458 388.937 220.121 382.88 232.225C373.545 261.11 346.432 282.002 314.438 282.002Z" fill="white" fill-opacity="0.5"/>
</g>
<defs>
<filter id="filter0_f_356_152" x="77.9736" y="0.0932617" width="138.879" height="135.194" filterUnits="userSpaceOnUse" color-interpolation-filters="sRGB">
<feFlood flood-opacity="0" result="BackgroundImageFix"/>
<feBlend mode="normal" in="SourceGraphic" in2="BackgroundImageFix" result="shape"/>
<feGaussianBlur stdDeviation="10" result="effect1_foregroundBlur_356_152"/>
</filter>
<filter id="filter1_d_356_152" x="19.001" y="33.0022" width="413.346" height="281" filterUnits="userSpaceOnUse" color-interpolation-filters="sRGB">
<feFlood flood-opacity="0" result="BackgroundImageFix"/>
<feColorMatrix in="SourceAlpha" type="matrix" values="0 0 0 0 0 0 0 0 0 0 0 0 0 0 0 0 0 0 127 0" result="hardAlpha"/>
<feOffset dx="10" dy="2"/>
<feGaussianBlur stdDeviation="15"/>
<feColorMatrix type="matrix" values="0 0 0 0 0.258824 0 0 0 0 0.627451 0 0 0 0 0.941176 0 0 0 0.596 0"/>
<feBlend mode="normal" in2="BackgroundImageFix" result="effect1_dropShadow_356_152"/>
<feBlend mode="normal" in="SourceGraphic" in2="effect1_dropShadow_356_152" result="shape"/>
</filter>
<linearGradient id="paint0_linear_356_152" x1="215.699" y1="61.0048" x2="318.342" y2="309.169" gradientUnits="userSpaceOnUse">
<stop stop-color="white" stop-opacity="0.604"/>
<stop offset="1" stop-color="white" stop-opacity="0.2"/>
</linearGradient>
</defs>
</svg>
