<svg width="433" height="350" viewBox="0 0 433 350" fill="none" xmlns="http://www.w3.org/2000/svg">
<path d="M309.173 294.882V347.5" stroke="#42A0F0" stroke-width="4" stroke-linecap="round"/>
<path d="M309.066 307.744L318.128 298.39" stroke="#42A0F0" stroke-width="4" stroke-linecap="round"/>
<path d="M309.067 307.744L299.713 298.39" stroke="#42A0F0" stroke-width="4" stroke-linecap="round"/>
<path d="M309.066 335.807L318.128 345.161" stroke="#42A0F0" stroke-width="4" stroke-linecap="round"/>
<path d="M309.067 335.807L299.713 345.161" stroke="#42A0F0" stroke-width="4" stroke-linecap="round"/>
<path d="M331.832 308.255L286.264 334.564" stroke="#42A0F0" stroke-width="4" stroke-linecap="round"/>
<path d="M320.639 314.594L333.271 317.765" stroke="#42A0F0" stroke-width="4" stroke-linecap="round"/>
<path d="M320.64 314.594L324.063 301.816" stroke="#42A0F0" stroke-width="4" stroke-linecap="round"/>
<path d="M296.336 328.625L292.766 341.15" stroke="#42A0F0" stroke-width="4" stroke-linecap="round"/>
<path d="M296.336 328.625L283.558 325.202" stroke="#42A0F0" stroke-width="4" stroke-linecap="round"/>
<path d="M331.579 334.564L286.011 308.255" stroke="#42A0F0" stroke-width="4" stroke-linecap="round"/>
<path d="M320.494 328.041L324.064 340.566" stroke="#42A0F0" stroke-width="4" stroke-linecap="round"/>
<path d="M320.494 328.041L333.271 324.617" stroke="#42A0F0" stroke-width="4" stroke-linecap="round"/>
<path d="M296.19 314.01L283.559 317.181" stroke="#42A0F0" stroke-width="4" stroke-linecap="round"/>
<path d="M296.19 314.01L292.766 301.232" stroke="#42A0F0" stroke-width="4" stroke-linecap="round"/>
<path d="M216.008 294.882V347.5" stroke="#42A0F0" stroke-width="4" stroke-linecap="round"/>
<path d="M215.901 307.744L224.963 298.39" stroke="#42A0F0" stroke-width="4" stroke-linecap="round"/>
<path d="M215.902 307.744L206.548 298.39" stroke="#42A0F0" stroke-width="4" stroke-linecap="round"/>
<path d="M215.901 335.807L224.963 345.161" stroke="#42A0F0" stroke-width="4" stroke-linecap="round"/>
<path d="M215.902 335.807L206.548 345.161" stroke="#42A0F0" stroke-width="4" stroke-linecap="round"/>
<path d="M238.667 308.255L193.098 334.564" stroke="#42A0F0" stroke-width="4" stroke-linecap="round"/>
<path d="M227.474 314.594L240.106 317.765" stroke="#42A0F0" stroke-width="4" stroke-linecap="round"/>
<path d="M227.475 314.594L230.898 301.816" stroke="#42A0F0" stroke-width="4" stroke-linecap="round"/>
<path d="M203.171 328.625L199.601 341.15" stroke="#42A0F0" stroke-width="4" stroke-linecap="round"/>
<path d="M203.171 328.625L190.393 325.202" stroke="#42A0F0" stroke-width="4" stroke-linecap="round"/>
<path d="M238.414 334.564L192.846 308.255" stroke="#42A0F0" stroke-width="4" stroke-linecap="round"/>
<path d="M227.329 328.041L230.899 340.566" stroke="#42A0F0" stroke-width="4" stroke-linecap="round"/>
<path d="M227.329 328.041L240.106 324.617" stroke="#42A0F0" stroke-width="4" stroke-linecap="round"/>
<path d="M203.025 314.01L190.394 317.181" stroke="#42A0F0" stroke-width="4" stroke-linecap="round"/>
<path d="M203.025 314.01L199.601 301.232" stroke="#42A0F0" stroke-width="4" stroke-linecap="round"/>
<path d="M123.008 294.882V347.5" stroke="#42A0F0" stroke-width="4" stroke-linecap="round"/>
<path d="M122.901 307.744L131.963 298.39" stroke="#42A0F0" stroke-width="4" stroke-linecap="round"/>
<path d="M122.902 307.744L113.548 298.39" stroke="#42A0F0" stroke-width="4" stroke-linecap="round"/>
<path d="M122.901 335.807L131.963 345.161" stroke="#42A0F0" stroke-width="4" stroke-linecap="round"/>
<path d="M122.902 335.807L113.548 345.161" stroke="#42A0F0" stroke-width="4" stroke-linecap="round"/>
<path d="M145.667 308.255L100.098 334.564" stroke="#42A0F0" stroke-width="4" stroke-linecap="round"/>
<path d="M134.474 314.594L147.106 317.765" stroke="#42A0F0" stroke-width="4" stroke-linecap="round"/>
<path d="M134.475 314.594L137.898 301.816" stroke="#42A0F0" stroke-width="4" stroke-linecap="round"/>
<path d="M110.171 328.625L106.601 341.15" stroke="#42A0F0" stroke-width="4" stroke-linecap="round"/>
<path d="M110.171 328.625L97.3933 325.202" stroke="#42A0F0" stroke-width="4" stroke-linecap="round"/>
<path d="M145.414 334.564L99.8455 308.255" stroke="#42A0F0" stroke-width="4" stroke-linecap="round"/>
<path d="M134.329 328.041L137.899 340.566" stroke="#42A0F0" stroke-width="4" stroke-linecap="round"/>
<path d="M134.329 328.041L147.106 324.617" stroke="#42A0F0" stroke-width="4" stroke-linecap="round"/>
<path d="M110.025 314.01L97.3936 317.181" stroke="#42A0F0" stroke-width="4" stroke-linecap="round"/>
<path d="M110.025 314.01L106.601 301.232" stroke="#42A0F0" stroke-width="4" stroke-linecap="round"/>
<path d="M168.008 215.882V268.5" stroke="#42A0F0" stroke-width="4" stroke-linecap="round"/>
<path d="M167.901 228.744L176.963 219.39" stroke="#42A0F0" stroke-width="4" stroke-linecap="round"/>
<path d="M167.902 228.744L158.548 219.39" stroke="#42A0F0" stroke-width="4" stroke-linecap="round"/>
<path d="M167.901 256.807L176.963 266.161" stroke="#42A0F0" stroke-width="4" stroke-linecap="round"/>
<path d="M167.902 256.807L158.548 266.161" stroke="#42A0F0" stroke-width="4" stroke-linecap="round"/>
<path d="M190.667 229.255L145.098 255.564" stroke="#42A0F0" stroke-width="4" stroke-linecap="round"/>
<path d="M179.474 235.594L192.106 238.765" stroke="#42A0F0" stroke-width="4" stroke-linecap="round"/>
<path d="M179.475 235.594L182.898 222.816" stroke="#42A0F0" stroke-width="4" stroke-linecap="round"/>
<path d="M155.171 249.625L151.601 262.15" stroke="#42A0F0" stroke-width="4" stroke-linecap="round"/>
<path d="M155.171 249.625L142.393 246.202" stroke="#42A0F0" stroke-width="4" stroke-linecap="round"/>
<path d="M190.414 255.564L144.846 229.255" stroke="#42A0F0" stroke-width="4" stroke-linecap="round"/>
<path d="M179.329 249.041L182.899 261.566" stroke="#42A0F0" stroke-width="4" stroke-linecap="round"/>
<path d="M179.329 249.041L192.106 245.617" stroke="#42A0F0" stroke-width="4" stroke-linecap="round"/>
<path d="M155.025 235.01L142.394 238.181" stroke="#42A0F0" stroke-width="4" stroke-linecap="round"/>
<path d="M155.025 235.01L151.601 222.232" stroke="#42A0F0" stroke-width="4" stroke-linecap="round"/>
<path d="M271.008 215.882V268.5" stroke="#42A0F0" stroke-width="4" stroke-linecap="round"/>
<path d="M270.901 228.744L279.963 219.39" stroke="#42A0F0" stroke-width="4" stroke-linecap="round"/>
<path d="M270.902 228.744L261.548 219.39" stroke="#42A0F0" stroke-width="4" stroke-linecap="round"/>
<path d="M270.901 256.807L279.963 266.161" stroke="#42A0F0" stroke-width="4" stroke-linecap="round"/>
<path d="M270.902 256.807L261.548 266.161" stroke="#42A0F0" stroke-width="4" stroke-linecap="round"/>
<path d="M293.667 229.255L248.098 255.564" stroke="#42A0F0" stroke-width="4" stroke-linecap="round"/>
<path d="M282.474 235.594L295.106 238.765" stroke="#42A0F0" stroke-width="4" stroke-linecap="round"/>
<path d="M282.475 235.594L285.898 222.816" stroke="#42A0F0" stroke-width="4" stroke-linecap="round"/>
<path d="M258.171 249.625L254.601 262.15" stroke="#42A0F0" stroke-width="4" stroke-linecap="round"/>
<path d="M258.171 249.625L245.393 246.202" stroke="#42A0F0" stroke-width="4" stroke-linecap="round"/>
<path d="M293.414 255.564L247.846 229.255" stroke="#42A0F0" stroke-width="4" stroke-linecap="round"/>
<path d="M282.329 249.041L285.899 261.566" stroke="#42A0F0" stroke-width="4" stroke-linecap="round"/>
<path d="M282.329 249.041L295.106 245.617" stroke="#42A0F0" stroke-width="4" stroke-linecap="round"/>
<path d="M258.025 235.01L245.394 238.181" stroke="#42A0F0" stroke-width="4" stroke-linecap="round"/>
<path d="M258.025 235.01L254.601 222.232" stroke="#42A0F0" stroke-width="4" stroke-linecap="round"/>
<path d="M103.268 6.72311C110.278 6.72135 117.27 7.42963 124.137 8.83711C137.39 11.5668 149.974 16.8888 161.164 24.4971C176.667 35.0048 189.053 49.4945 197.021 66.4436C204.989 83.3926 208.244 102.175 206.444 120.817C204.644 139.458 197.856 157.271 186.793 172.383C175.73 187.495 160.801 199.347 143.574 206.695C137.312 209.356 130.8 211.388 124.136 212.76C109.685 215.69 94.7754 215.508 80.4005 212.224C66.0257 208.941 52.5155 202.632 40.77 193.718C29.0244 184.804 19.3132 173.489 12.2832 160.528C5.25319 147.566 1.06578 133.256 -7.62939e-05 118.549C11.3314 121.201 23.1023 121.372 34.5059 119.049C44.7389 116.953 54.4592 112.863 63.1119 107.012C75.9742 98.3288 86.0422 86.1017 92.0959 71.8121C94.1414 66.9726 95.7027 61.9424 96.7569 56.7951C99.004 45.7664 98.9209 34.3898 96.5129 23.3951C95.3016 17.8974 93.5102 12.5437 91.1689 7.42412C95.185 6.95677 99.2248 6.7227 103.268 6.72311V6.72311Z" fill="#713FFD"/>
<g filter="url(#filter0_f_356_168)">
<path d="M173.339 38.8961C150.095 17.9666 119.644 13.8914 105.325 29.7938C91.0067 45.6962 98.2426 75.5544 121.487 96.4839C144.732 117.413 175.183 121.489 189.501 105.586C203.82 89.6838 196.584 59.8256 173.339 38.8961Z" fill="#A586FC"/>
</g>
<g filter="url(#filter1_d_356_168)">
<path d="M302.345 282.002H110.913C92.3426 281.988 74.4976 274.791 61.1137 261.917C47.7298 249.043 39.8447 231.491 39.1092 212.935C38.3737 194.38 44.8448 176.259 57.1677 162.366C69.4906 148.473 86.71 139.886 105.221 138.402C107.861 119.762 116.278 102.419 129.289 88.8121C142.299 75.2054 159.248 66.0201 177.752 62.5485C196.255 59.0769 215.381 61.4937 232.439 69.4589C249.497 77.424 263.628 90.5367 272.845 106.952C289.75 101.1 308.015 100.416 325.31 104.988C342.605 109.559 358.146 119.179 369.952 132.619C381.757 146.06 389.292 162.712 391.594 180.452C393.896 198.192 390.862 216.216 382.879 232.225C378.194 246.69 369.047 259.298 356.751 268.241C344.455 277.184 329.641 282.002 314.437 282.002H302.345Z" fill="url(#paint0_linear_356_168)"/>
<path d="M314.437 281.002C322.157 281.002 329.748 279.769 336.998 277.338C344.009 274.987 350.59 271.556 356.56 267.141C362.462 262.777 367.635 257.549 371.936 251.603C376.29 245.582 379.652 238.959 381.928 231.917L381.951 231.845L381.985 231.777C385.011 225.73 387.341 219.333 388.911 212.763C390.526 206.002 391.345 199.017 391.345 192.002C391.345 185.963 390.737 179.928 389.537 174.064C388.368 168.35 386.623 162.73 384.352 157.359C382.121 152.086 379.361 147 376.146 142.242C372.962 137.529 369.306 133.097 365.278 129.069C361.25 125.042 356.819 121.385 352.106 118.201C347.348 114.987 342.261 112.226 336.988 109.995C331.617 107.724 325.997 105.979 320.283 104.81C314.42 103.61 308.385 103.002 302.345 103.002C292.346 103.002 282.531 104.647 273.172 107.893L272.383 108.167L271.973 107.438C264.357 93.8965 253.279 82.5239 239.937 74.5501C233.189 70.5175 225.94 67.4012 218.391 65.2879C210.602 63.1077 202.512 62.0022 194.345 62.0022C183.361 62.0022 172.638 63.9792 162.475 67.8782C152.657 71.6449 143.65 77.0859 135.705 84.0502C127.806 90.9744 121.251 99.1444 116.221 108.333C111.069 117.747 107.701 127.909 106.211 138.537L106.1 139.333L105.299 139.395C96.3408 140.096 87.7219 142.455 79.6818 146.405C71.8694 150.244 64.8932 155.436 58.947 161.837C46.7289 174.989 40 192.125 40 210.089C40 219.663 41.8748 228.949 45.5723 237.691C47.3495 241.893 49.5491 245.945 52.1102 249.736C54.6472 253.491 57.5607 257.023 60.7699 260.232C63.9791 263.441 67.5104 266.355 71.2655 268.892C75.0565 271.453 79.109 273.652 83.3106 275.429C92.0525 279.127 101.339 281.002 110.913 281.002H302.345H314.437ZM314.437 282.002H302.345H110.913C71.1966 282.002 39 249.805 39 210.089C39 172.288 68.1646 141.299 105.221 138.398C111.35 94.6596 148.917 61.0022 194.345 61.0022C228.048 61.0022 257.422 79.5254 272.845 106.948C282.087 103.743 292.012 102.002 302.345 102.002C352.051 102.002 392.345 142.297 392.345 192.002C392.345 206.458 388.936 220.121 382.879 232.225C373.544 261.11 346.431 282.002 314.437 282.002Z" fill="white" fill-opacity="0.5"/>
</g>
<defs>
<filter id="filter0_f_356_168" x="77.9736" y="0.0932617" width="138.879" height="135.194" filterUnits="userSpaceOnUse" color-interpolation-filters="sRGB">
<feFlood flood-opacity="0" result="BackgroundImageFix"/>
<feBlend mode="normal" in="SourceGraphic" in2="BackgroundImageFix" result="shape"/>
<feGaussianBlur stdDeviation="10" result="effect1_foregroundBlur_356_168"/>
</filter>
<filter id="filter1_d_356_168" x="19" y="33.0022" width="413.346" height="281" filterUnits="userSpaceOnUse" color-interpolation-filters="sRGB">
<feFlood flood-opacity="0" result="BackgroundImageFix"/>
<feColorMatrix in="SourceAlpha" type="matrix" values="0 0 0 0 0 0 0 0 0 0 0 0 0 0 0 0 0 0 127 0" result="hardAlpha"/>
<feOffset dx="10" dy="2"/>
<feGaussianBlur stdDeviation="15"/>
<feColorMatrix type="matrix" values="0 0 0 0 0.258824 0 0 0 0 0.627451 0 0 0 0 0.941176 0 0 0 0.596 0"/>
<feBlend mode="normal" in2="BackgroundImageFix" result="effect1_dropShadow_356_168"/>
<feBlend mode="normal" in="SourceGraphic" in2="effect1_dropShadow_356_168" result="shape"/>
</filter>
<linearGradient id="paint0_linear_356_168" x1="215.698" y1="61.0046" x2="318.341" y2="309.168" gradientUnits="userSpaceOnUse">
<stop stop-color="white" stop-opacity="0.604"/>
<stop offset="1" stop-color="white" stop-opacity="0.2"/>
</linearGradient>
</defs>
</svg>
