<svg width="441" height="380" viewBox="0 0 441 380" fill="none" xmlns="http://www.w3.org/2000/svg">
<path d="M206.333 208.001H274.405L235.272 265.467L281.027 266.333L184.99 380.001L208.26 293.338H165.66L206.333 208.001Z" fill="url(#paint0_linear_356_352)"/>
<path d="M311.518 268.484H341.405L324.224 293.715L344.313 294.095L302.147 344.001L312.364 305.952H293.664L311.518 268.484Z" fill="url(#paint1_linear_356_352)"/>
<path d="M104.518 294.001H134.405L117.224 319.232L137.313 319.612L95.1471 369.518L105.364 331.469H86.6641L104.518 294.001Z" fill="url(#paint2_linear_356_352)"/>
<path d="M103.268 6.72311C110.278 6.72135 117.27 7.42963 124.137 8.83711C137.39 11.5668 149.974 16.8888 161.164 24.4971C176.667 35.0048 189.053 49.4945 197.021 66.4436C204.989 83.3926 208.244 102.175 206.444 120.817C204.644 139.458 197.856 157.271 186.793 172.383C175.73 187.495 160.801 199.347 143.574 206.695C137.312 209.356 130.8 211.388 124.136 212.76C109.685 215.69 94.7754 215.508 80.4005 212.224C66.0257 208.941 52.5155 202.632 40.77 193.718C29.0244 184.804 19.3132 173.489 12.2832 160.528C5.25319 147.566 1.06578 133.256 -7.62939e-05 118.549C11.3314 121.201 23.1023 121.372 34.5059 119.049C44.7389 116.953 54.4592 112.863 63.1119 107.012C75.9742 98.3288 86.0422 86.1017 92.0959 71.8121C94.1414 66.9726 95.7027 61.9424 96.7569 56.7951C99.004 45.7664 98.9209 34.3898 96.5129 23.3951C95.3016 17.8974 93.5102 12.5437 91.1689 7.42412C95.185 6.95677 99.2248 6.7227 103.268 6.72311V6.72311Z" fill="#713FFD"/>
<g filter="url(#filter0_f_356_352)">
<path d="M173.339 38.8964C150.095 17.9669 119.644 13.8916 105.325 29.7941C91.0067 45.6965 98.2426 75.5547 121.487 96.4842C144.732 117.414 175.183 121.489 189.501 105.586C203.82 89.6841 196.584 59.8259 173.339 38.8964Z" fill="#A586FC"/>
</g>
<g filter="url(#filter1_d_356_352)">
<path d="M310.345 282.002H118.913C100.343 281.988 82.4976 274.79 69.1137 261.917C55.7298 249.043 47.8447 231.491 47.1092 212.935C46.3737 194.379 52.8448 176.258 65.1677 162.366C77.4906 148.473 94.71 139.886 113.221 138.402C115.861 119.762 124.278 102.419 137.289 88.8118C150.299 75.2051 167.248 66.0199 185.752 62.5483C204.255 59.0767 223.381 61.4935 240.439 69.4586C257.497 77.4238 271.628 90.5365 280.845 106.952C297.75 101.1 316.015 100.416 333.311 104.988C350.606 109.56 366.148 119.179 377.953 132.621C389.759 146.062 397.293 162.715 399.594 180.455C401.896 198.196 398.861 216.22 390.877 232.229C386.192 246.692 377.045 259.3 364.749 268.242C352.453 277.184 337.641 282.001 322.437 282.002H310.345Z" fill="url(#paint3_linear_356_352)"/>
<path d="M322.437 281.001C330.156 281.001 337.746 279.769 344.996 277.338C352.006 274.987 358.587 271.557 364.557 267.142C370.458 262.778 375.631 257.55 379.932 251.604C384.287 245.584 387.649 238.962 389.925 231.921L389.949 231.849L389.983 231.781C393.01 225.733 395.341 219.335 396.911 212.765C398.526 206.005 399.345 199.019 399.345 192.001C399.345 185.962 398.737 179.927 397.537 174.064C396.368 168.35 394.623 162.73 392.352 157.359C390.121 152.086 387.36 146.999 384.146 142.242C380.962 137.529 377.305 133.097 373.278 129.069C369.25 125.041 364.818 121.385 360.105 118.201C355.347 114.986 350.261 112.226 344.988 109.995C339.617 107.724 333.997 105.979 328.283 104.81C322.42 103.61 316.384 103.001 310.345 103.001C300.346 103.001 290.531 104.647 281.172 107.893L280.383 108.166L279.973 107.438C272.357 93.8962 261.279 82.5236 247.937 74.5498C241.189 70.5172 233.94 67.401 226.391 65.2876C218.602 63.1074 210.512 62.002 202.345 62.002C191.361 62.002 180.638 63.979 170.475 67.878C160.657 71.6446 151.65 77.0857 143.705 84.05C135.806 90.9742 129.251 99.1441 124.221 108.333C119.069 117.747 115.701 127.909 114.211 138.537L114.1 139.332L113.299 139.395C104.341 140.096 95.7219 142.455 87.6818 146.405C79.8694 150.244 72.8932 155.435 66.947 161.836C54.7289 174.989 48 192.125 48 210.089C48 219.662 49.8748 228.949 53.5723 237.691C55.3495 241.892 57.5491 245.945 60.1102 249.736C62.6472 253.491 65.5607 257.022 68.7699 260.232C71.9791 263.441 75.5104 266.354 79.2655 268.891C83.0565 271.452 87.109 273.652 91.3106 275.429C100.052 279.127 109.339 281.001 118.913 281.001H310.345H322.437ZM322.437 282.001H310.345H118.913C79.1966 282.001 47 249.805 47 210.089C47 172.288 76.1646 141.299 113.221 138.398C119.35 94.6593 156.917 61.002 202.345 61.002C236.048 61.002 265.422 79.5251 280.845 106.948C290.087 103.743 300.012 102.001 310.345 102.001C360.051 102.001 400.345 142.296 400.345 192.001C400.345 206.461 396.936 220.123 390.877 232.229C381.54 261.111 354.427 282.001 322.437 282.001Z" fill="white" fill-opacity="0.5"/>
</g>
<defs>
<filter id="filter0_f_356_352" x="77.9736" y="0.0932617" width="138.879" height="135.194" filterUnits="userSpaceOnUse" color-interpolation-filters="sRGB">
<feFlood flood-opacity="0" result="BackgroundImageFix"/>
<feBlend mode="normal" in="SourceGraphic" in2="BackgroundImageFix" result="shape"/>
<feGaussianBlur stdDeviation="10" result="effect1_foregroundBlur_356_352"/>
</filter>
<filter id="filter1_d_356_352" x="27" y="33.002" width="413.346" height="281" filterUnits="userSpaceOnUse" color-interpolation-filters="sRGB">
<feFlood flood-opacity="0" result="BackgroundImageFix"/>
<feColorMatrix in="SourceAlpha" type="matrix" values="0 0 0 0 0 0 0 0 0 0 0 0 0 0 0 0 0 0 127 0" result="hardAlpha"/>
<feOffset dx="10" dy="2"/>
<feGaussianBlur stdDeviation="15"/>
<feColorMatrix type="matrix" values="0 0 0 0 0.258824 0 0 0 0 0.627451 0 0 0 0 0.941176 0 0 0 0.596 0"/>
<feBlend mode="normal" in2="BackgroundImageFix" result="effect1_dropShadow_356_352"/>
<feBlend mode="normal" in="SourceGraphic" in2="effect1_dropShadow_356_352" result="shape"/>
</filter>
<linearGradient id="paint0_linear_356_352" x1="212.73" y1="294.001" x2="158.841" y2="274.245" gradientUnits="userSpaceOnUse">
<stop stop-color="#FFD100"/>
<stop offset="1" stop-color="#FFF0AA"/>
</linearGradient>
<linearGradient id="paint1_linear_356_352" x1="314.329" y1="306.243" x2="290.67" y2="297.57" gradientUnits="userSpaceOnUse">
<stop stop-color="#FFD100"/>
<stop offset="1" stop-color="#FFF0AA"/>
</linearGradient>
<linearGradient id="paint2_linear_356_352" x1="107.329" y1="331.759" x2="83.67" y2="323.087" gradientUnits="userSpaceOnUse">
<stop stop-color="#FFD100"/>
<stop offset="1" stop-color="#FFF0AA"/>
</linearGradient>
<linearGradient id="paint3_linear_356_352" x1="223.698" y1="61.0044" x2="326.341" y2="309.168" gradientUnits="userSpaceOnUse">
<stop stop-color="white" stop-opacity="0.604"/>
<stop offset="1" stop-color="white" stop-opacity="0.2"/>
</linearGradient>
</defs>
</svg>
