<svg width="429" height="380" viewBox="0 0 429 380" fill="none" xmlns="http://www.w3.org/2000/svg">
<path d="M179.09 206.426C179.806 206.444 187.072 231.674 187.072 241.478C187.072 251.282 183.498 259.231 179.09 259.231C174.682 259.231 171.108 251.283 171.108 241.479C171.108 231.675 178.374 206.409 179.09 206.426Z" fill="#42A0F0"/>
<path d="M175.234 244.478C176.4 244.834 177.936 243.192 178.665 240.809C179.393 238.426 179.038 236.205 177.872 235.848C176.706 235.492 175.17 237.134 174.442 239.517C173.713 241.901 174.068 244.121 175.234 244.478Z" fill="white"/>
<path d="M238.516 206.426C239.232 206.444 246.498 231.674 246.498 241.478C246.498 251.282 242.924 259.231 238.516 259.231C234.108 259.231 230.534 251.283 230.534 241.479C230.534 231.675 237.8 206.409 238.516 206.426Z" fill="#42A0F0"/>
<path d="M234.66 244.478C235.826 244.834 237.362 243.192 238.09 240.809C238.819 238.426 238.464 236.205 237.298 235.848C236.132 235.492 234.596 237.134 233.867 239.517C233.139 241.901 233.494 244.121 234.66 244.478Z" fill="white"/>
<path d="M293.404 203.426C294.12 203.444 301.386 228.674 301.386 238.478C301.386 248.282 297.812 256.231 293.404 256.231C288.996 256.231 285.422 248.283 285.422 238.479C285.422 228.675 292.688 203.409 293.404 203.426Z" fill="#42A0F0"/>
<path d="M289.547 241.478C290.714 241.834 292.25 240.192 292.978 237.809C293.707 235.426 293.352 233.205 292.186 232.848C291.02 232.492 289.484 234.134 288.755 236.517C288.026 238.901 288.381 241.121 289.547 241.478Z" fill="white"/>
<path d="M207.055 273.426C207.771 273.444 215.037 298.674 215.037 308.478C215.037 318.282 211.463 326.231 207.055 326.231C202.647 326.231 199.073 318.283 199.073 308.479C199.073 298.675 206.339 273.409 207.055 273.426Z" fill="#42A0F0"/>
<path d="M203.199 311.478C204.365 311.834 205.901 310.192 206.629 307.809C207.358 305.426 207.003 303.205 205.837 302.848C204.671 302.492 203.135 304.134 202.406 306.517C201.678 308.901 202.033 311.121 203.199 311.478Z" fill="white"/>
<path d="M266.481 273.426C267.197 273.444 274.463 298.674 274.463 308.478C274.463 318.282 270.889 326.231 266.481 326.231C262.073 326.231 258.499 318.283 258.499 308.479C258.499 298.675 265.765 273.409 266.481 273.426Z" fill="#42A0F0"/>
<path d="M262.625 311.478C263.791 311.834 265.327 310.192 266.055 307.809C266.784 305.426 266.429 303.205 265.263 302.848C264.097 302.492 262.561 304.134 261.832 306.517C261.104 308.901 261.458 311.121 262.625 311.478Z" fill="white"/>
<path d="M329.404 273.426C330.12 273.444 337.386 298.674 337.386 308.478C337.386 318.282 333.812 326.231 329.404 326.231C324.996 326.231 321.422 318.283 321.422 308.479C321.422 298.675 328.688 273.409 329.404 273.426Z" fill="#42A0F0"/>
<path d="M325.547 311.478C326.714 311.834 328.25 310.192 328.978 307.809C329.707 305.426 329.352 303.205 328.186 302.848C327.02 302.492 325.484 304.134 324.755 306.517C324.026 308.901 324.381 311.121 325.547 311.478Z" fill="white"/>
<path d="M179.09 326.426C179.806 326.444 187.072 351.674 187.072 361.478C187.072 371.282 183.498 379.231 179.09 379.231C174.682 379.231 171.108 371.283 171.108 361.479C171.108 351.675 178.374 326.409 179.09 326.426Z" fill="#42A0F0"/>
<path d="M175.234 364.478C176.4 364.834 177.936 363.192 178.665 360.809C179.393 358.426 179.038 356.205 177.872 355.848C176.706 355.492 175.17 357.134 174.442 359.517C173.713 361.901 174.068 364.121 175.234 364.478Z" fill="white"/>
<path d="M238.516 326.426C239.232 326.444 246.498 351.674 246.498 361.478C246.498 371.282 242.924 379.231 238.516 379.231C234.108 379.231 230.534 371.283 230.534 361.479C230.534 351.675 237.8 326.409 238.516 326.426Z" fill="#42A0F0"/>
<path d="M234.66 364.478C235.826 364.834 237.362 363.192 238.09 360.809C238.819 358.426 238.464 356.205 237.298 355.848C236.132 355.492 234.596 357.134 233.867 359.517C233.139 361.901 233.494 364.121 234.66 364.478Z" fill="white"/>
<path d="M293.404 326.426C294.12 326.444 301.386 351.674 301.386 361.478C301.386 371.282 297.812 379.231 293.404 379.231C288.996 379.231 285.422 371.283 285.422 361.479C285.422 351.675 292.688 326.409 293.404 326.426Z" fill="#42A0F0"/>
<path d="M289.547 364.478C290.714 364.834 292.25 363.192 292.978 360.809C293.707 358.426 293.352 356.205 292.186 355.848C291.02 355.492 289.484 357.134 288.755 359.517C288.026 361.901 288.381 364.121 289.547 364.478Z" fill="white"/>
<path d="M107.25 241.551H153.896L127.081 280.929L158.434 281.523L92.6259 359.411L108.571 300.027H79.3799L107.25 241.551Z" fill="url(#paint0_linear_356_368)"/>
<path d="M96.5442 8.34885C103.097 8.34746 109.634 9.00983 116.053 10.3258C128.443 12.8779 140.207 17.8532 150.668 24.9658C165.161 34.7891 176.741 48.3352 184.189 64.1803C191.638 80.0253 194.681 97.5843 192.998 115.012C191.315 132.439 184.969 149.092 174.626 163.219C164.283 177.346 150.326 188.426 134.221 195.295C128.367 197.782 122.279 199.681 116.049 200.964C102.54 203.704 88.601 203.534 75.1622 200.465C61.7233 197.396 49.0929 191.498 38.1122 183.165C27.1316 174.831 18.053 164.254 11.4813 152.136C4.90956 140.019 0.995615 126.64 0.000213623 112.891C5.63343 114.211 11.4003 114.877 17.1862 114.875C32.0885 114.899 46.655 110.449 59.0002 102.102C71.025 93.9866 80.4385 82.5584 86.1002 69.2018C89.9978 59.9924 91.9967 50.0911 91.9772 40.0908C91.978 34.6601 91.3909 29.2452 90.2262 23.9408C89.0925 18.801 87.4164 13.7959 85.2262 9.00984C88.9829 8.57077 92.7619 8.35007 96.5442 8.34885V8.34885Z" fill="#713FFD"/>
<g filter="url(#filter0_f_356_368)">
<path d="M162.048 38.4269C140.318 18.8611 111.85 15.0515 98.4646 29.918C85.0787 44.7845 91.8431 72.6975 113.573 92.2633C135.303 111.829 163.77 115.639 177.156 100.772C190.542 85.9057 183.778 57.9928 162.048 38.4269Z" fill="#A586FC"/>
</g>
<g filter="url(#filter1_d_356_368)">
<path d="M298.065 268.069H106.633C88.0624 268.055 70.2173 260.857 56.8334 247.984C43.4495 235.11 35.5645 217.558 34.8289 199.002C34.0934 180.446 40.5645 162.325 52.8874 148.433C65.2103 134.54 82.4297 125.953 100.941 124.469C103.581 105.829 111.998 88.4854 125.008 74.8787C138.019 61.272 154.968 52.0868 173.471 48.6152C191.974 45.1436 211.1 47.5604 228.158 55.5255C245.216 63.4907 259.348 76.6034 268.565 93.0188C285.47 87.1669 303.734 86.4831 321.029 91.0545C338.324 95.6258 353.866 105.245 365.671 118.686C377.477 132.126 385.011 148.779 387.314 166.519C389.616 184.259 386.582 202.283 378.599 218.292C373.914 232.756 364.767 245.365 352.471 254.308C340.175 263.251 325.361 268.068 310.157 268.069H298.065Z" fill="url(#paint1_linear_356_368)"/>
<path d="M310.157 267.068C317.877 267.068 325.467 265.836 332.717 263.405C339.728 261.054 346.31 257.623 352.28 253.208C358.181 248.844 363.354 243.616 367.655 237.669C372.01 231.649 375.372 225.026 377.647 217.984L377.671 217.912L377.705 217.844C380.731 211.797 383.061 205.399 384.631 198.829C386.246 192.069 387.065 185.084 387.065 178.068C387.065 172.029 386.457 165.994 385.257 160.131C384.088 154.417 382.343 148.797 380.072 143.426C377.841 138.153 375.08 133.066 371.866 128.308C368.682 123.596 365.025 119.164 360.998 115.136C356.97 111.108 352.538 107.452 347.825 104.268C343.067 101.053 337.981 98.2925 332.708 96.0621C327.337 93.7904 321.717 92.0458 316.003 90.8765C310.139 89.6767 304.104 89.0683 298.065 89.0683C288.066 89.0683 278.25 90.714 268.892 93.9596L268.102 94.2335L267.693 93.505C260.077 79.9632 248.999 68.5905 235.657 60.6167C228.909 56.5841 221.66 53.4679 214.11 51.3546C206.322 49.1743 198.232 48.0688 190.065 48.0688C179.08 48.0688 168.357 50.0458 158.194 53.9449C148.376 57.7115 139.37 63.1526 131.425 70.1168C123.526 77.0411 116.97 85.211 111.941 94.3997C106.788 103.814 103.42 113.976 101.931 124.604L101.82 125.399L101.019 125.462C92.0605 126.163 83.4416 128.522 75.4015 132.472C67.5891 136.311 60.6129 141.502 54.6667 147.903C42.4486 161.056 35.7197 178.192 35.7197 196.156C35.7197 205.729 37.5945 215.016 41.292 223.758C43.0692 227.959 45.2689 232.012 47.83 235.803C50.3669 239.558 53.2805 243.089 56.4896 246.298C59.6988 249.508 63.2301 252.421 66.9852 254.958C70.7762 257.519 74.8287 259.719 79.0304 261.496C87.7722 265.194 97.0589 267.068 106.632 267.068H298.065H310.157ZM310.157 268.068H298.065H106.632C66.9163 268.068 34.7197 235.872 34.7197 196.156C34.7197 158.355 63.8844 127.366 100.941 124.465C107.07 80.7262 144.637 47.0688 190.065 47.0688C223.767 47.0688 253.142 65.5921 268.564 93.0148C277.807 89.8095 287.732 88.0683 298.065 88.0683C347.771 88.0683 388.065 128.363 388.065 178.068C388.065 192.525 384.656 206.187 378.599 218.291C369.264 247.177 342.15 268.068 310.157 268.068Z" fill="white" fill-opacity="0.5"/>
</g>
<defs>
<filter id="filter0_f_356_368" x="71.5918" y="0.849121" width="132.437" height="128.992" filterUnits="userSpaceOnUse" color-interpolation-filters="sRGB">
<feFlood flood-opacity="0" result="BackgroundImageFix"/>
<feBlend mode="normal" in="SourceGraphic" in2="BackgroundImageFix" result="shape"/>
<feGaussianBlur stdDeviation="10" result="effect1_foregroundBlur_356_368"/>
</filter>
<filter id="filter1_d_356_368" x="14.7197" y="19.0688" width="413.346" height="281" filterUnits="userSpaceOnUse" color-interpolation-filters="sRGB">
<feFlood flood-opacity="0" result="BackgroundImageFix"/>
<feColorMatrix in="SourceAlpha" type="matrix" values="0 0 0 0 0 0 0 0 0 0 0 0 0 0 0 0 0 0 127 0" result="hardAlpha"/>
<feOffset dx="10" dy="2"/>
<feGaussianBlur stdDeviation="15"/>
<feColorMatrix type="matrix" values="0 0 0 0 0.258824 0 0 0 0 0.627451 0 0 0 0 0.941176 0 0 0 0.596 0"/>
<feBlend mode="normal" in2="BackgroundImageFix" result="effect1_dropShadow_356_368"/>
<feBlend mode="normal" in="SourceGraphic" in2="effect1_dropShadow_356_368" result="shape"/>
</filter>
<linearGradient id="paint0_linear_356_368" x1="111.634" y1="300.481" x2="74.7074" y2="286.943" gradientUnits="userSpaceOnUse">
<stop stop-color="#FFD100"/>
<stop offset="1" stop-color="#FFF0AA"/>
</linearGradient>
<linearGradient id="paint1_linear_356_368" x1="211.418" y1="47.0713" x2="314.06" y2="295.235" gradientUnits="userSpaceOnUse">
<stop stop-color="white" stop-opacity="0.604"/>
<stop offset="1" stop-color="white" stop-opacity="0.2"/>
</linearGradient>
</defs>
</svg>
