<svg width="452" height="342" viewBox="0 0 452 342" fill="none" xmlns="http://www.w3.org/2000/svg">
<path d="M357.339 257V333.792" stroke="#42A0F0" stroke-width="6" stroke-linecap="round"/>
<path d="M357.186 275.771L370.411 262.119" stroke="#42A0F0" stroke-width="6" stroke-linecap="round"/>
<path d="M357.185 275.771L343.533 262.119" stroke="#42A0F0" stroke-width="6" stroke-linecap="round"/>
<path d="M357.186 316.727L370.411 330.379" stroke="#42A0F0" stroke-width="6" stroke-linecap="round"/>
<path d="M357.185 316.727L343.533 330.379" stroke="#42A0F0" stroke-width="6" stroke-linecap="round"/>
<path d="M390.407 276.517L323.903 314.913" stroke="#42A0F0" stroke-width="6" stroke-linecap="round"/>
<path d="M374.074 285.768L392.509 290.396" stroke="#42A0F0" stroke-width="6" stroke-linecap="round"/>
<path d="M374.073 285.769L379.07 267.12" stroke="#42A0F0" stroke-width="6" stroke-linecap="round"/>
<path d="M338.604 306.246L333.394 324.525" stroke="#42A0F0" stroke-width="6" stroke-linecap="round"/>
<path d="M338.604 306.246L319.955 301.249" stroke="#42A0F0" stroke-width="6" stroke-linecap="round"/>
<path d="M390.039 314.913L323.535 276.517" stroke="#42A0F0" stroke-width="6" stroke-linecap="round"/>
<path d="M373.86 305.393L379.07 323.672" stroke="#42A0F0" stroke-width="6" stroke-linecap="round"/>
<path d="M373.86 305.393L392.509 300.396" stroke="#42A0F0" stroke-width="6" stroke-linecap="round"/>
<path d="M338.391 284.916L319.955 289.543" stroke="#42A0F0" stroke-width="6" stroke-linecap="round"/>
<path d="M338.391 284.916L333.394 266.267" stroke="#42A0F0" stroke-width="6" stroke-linecap="round"/>
<path d="M283.339 139V215.792" stroke="#42A0F0" stroke-width="6" stroke-linecap="round"/>
<path d="M283.186 157.771L296.411 144.119" stroke="#42A0F0" stroke-width="6" stroke-linecap="round"/>
<path d="M283.185 157.771L269.533 144.119" stroke="#42A0F0" stroke-width="6" stroke-linecap="round"/>
<path d="M283.186 198.727L296.411 212.379" stroke="#42A0F0" stroke-width="6" stroke-linecap="round"/>
<path d="M283.185 198.727L269.533 212.379" stroke="#42A0F0" stroke-width="6" stroke-linecap="round"/>
<path d="M316.407 158.517L249.903 196.913" stroke="#42A0F0" stroke-width="6" stroke-linecap="round"/>
<path d="M300.074 167.768L318.509 172.396" stroke="#42A0F0" stroke-width="6" stroke-linecap="round"/>
<path d="M300.073 167.769L305.07 149.12" stroke="#42A0F0" stroke-width="6" stroke-linecap="round"/>
<path d="M264.604 188.246L259.394 206.525" stroke="#42A0F0" stroke-width="6" stroke-linecap="round"/>
<path d="M264.604 188.246L245.955 183.249" stroke="#42A0F0" stroke-width="6" stroke-linecap="round"/>
<path d="M316.039 196.913L249.535 158.517" stroke="#42A0F0" stroke-width="6" stroke-linecap="round"/>
<path d="M299.86 187.393L305.07 205.672" stroke="#42A0F0" stroke-width="6" stroke-linecap="round"/>
<path d="M299.86 187.393L318.509 182.396" stroke="#42A0F0" stroke-width="6" stroke-linecap="round"/>
<path d="M264.391 166.916L245.955 171.543" stroke="#42A0F0" stroke-width="6" stroke-linecap="round"/>
<path d="M264.391 166.916L259.394 148.267" stroke="#42A0F0" stroke-width="6" stroke-linecap="round"/>
<path d="M219.339 257V333.792" stroke="#42A0F0" stroke-width="6" stroke-linecap="round"/>
<path d="M219.186 275.771L232.411 262.119" stroke="#42A0F0" stroke-width="6" stroke-linecap="round"/>
<path d="M219.185 275.771L205.533 262.119" stroke="#42A0F0" stroke-width="6" stroke-linecap="round"/>
<path d="M219.186 316.727L232.411 330.379" stroke="#42A0F0" stroke-width="6" stroke-linecap="round"/>
<path d="M219.185 316.727L205.533 330.379" stroke="#42A0F0" stroke-width="6" stroke-linecap="round"/>
<path d="M252.407 276.517L185.903 314.913" stroke="#42A0F0" stroke-width="6" stroke-linecap="round"/>
<path d="M236.074 285.768L254.509 290.396" stroke="#42A0F0" stroke-width="6" stroke-linecap="round"/>
<path d="M236.073 285.769L241.07 267.12" stroke="#42A0F0" stroke-width="6" stroke-linecap="round"/>
<path d="M200.604 306.246L195.394 324.525" stroke="#42A0F0" stroke-width="6" stroke-linecap="round"/>
<path d="M200.604 306.246L181.955 301.249" stroke="#42A0F0" stroke-width="6" stroke-linecap="round"/>
<path d="M252.039 314.913L185.535 276.517" stroke="#42A0F0" stroke-width="6" stroke-linecap="round"/>
<path d="M235.86 305.393L241.07 323.672" stroke="#42A0F0" stroke-width="6" stroke-linecap="round"/>
<path d="M235.86 305.393L254.509 300.396" stroke="#42A0F0" stroke-width="6" stroke-linecap="round"/>
<path d="M200.391 284.916L181.955 289.543" stroke="#42A0F0" stroke-width="6" stroke-linecap="round"/>
<path d="M200.391 284.916L195.394 266.267" stroke="#42A0F0" stroke-width="6" stroke-linecap="round"/>
<path d="M96.5442 17.3488C103.097 17.3475 109.634 18.0098 116.053 19.3258C128.443 21.8779 140.207 26.8532 150.668 33.9658C165.161 43.7891 176.741 57.3352 184.189 73.1803C191.638 89.0253 194.681 106.584 192.998 124.012C191.315 141.439 184.969 158.092 174.626 172.219C164.283 186.346 150.326 197.426 134.221 204.295C128.367 206.782 122.279 208.681 116.049 209.964C102.54 212.704 88.601 212.534 75.1622 209.465C61.7233 206.396 49.0929 200.498 38.1122 192.165C27.1316 183.831 18.053 173.254 11.4813 161.136C4.90956 149.019 0.995615 135.64 0.000213623 121.891C5.63343 123.211 11.4003 123.877 17.1862 123.875C32.0885 123.899 46.655 119.449 59.0002 111.102C71.025 102.987 80.4385 91.5584 86.1002 78.2018C89.9978 68.9924 91.9967 59.0911 91.9772 49.0908C91.978 43.6601 91.3909 38.2452 90.2262 32.9408C89.0925 27.801 87.4164 22.7959 85.2262 18.0098C88.9829 17.5708 92.7619 17.3501 96.5442 17.3488V17.3488Z" fill="#713FFD"/>
<g filter="url(#filter0_f_356_511)">
<path d="M162.048 47.4269C140.318 27.8611 111.85 24.0515 98.4646 38.918C85.0787 53.7845 91.8431 81.6975 113.573 101.263C135.303 120.829 163.77 124.639 177.156 109.772C190.542 94.9057 183.778 66.9928 162.048 47.4269Z" fill="#A586FC"/>
</g>
<path d="M130.53 223.424H177.176L150.361 262.802L181.714 263.396L115.906 341.284L131.851 281.9H102.66L130.53 223.424Z" fill="url(#paint0_linear_356_511)"/>
<g filter="url(#filter1_d_356_511)">
<path d="M321.345 249.942H129.913C111.343 249.928 93.4976 242.73 80.1137 229.857C66.7298 216.983 58.8447 199.431 58.1092 180.875C57.3737 162.319 63.8448 144.198 76.1677 130.306C88.4906 116.413 105.71 107.826 124.221 106.342C126.861 87.7018 135.278 70.3585 148.289 56.7518C161.299 43.1451 178.248 33.9598 196.752 30.4882C215.255 27.0166 234.381 29.4334 251.439 37.3986C268.497 45.3637 282.628 58.4764 291.845 74.8918C308.75 69.04 327.015 68.3561 344.31 72.9275C361.605 77.4989 377.146 87.1183 388.952 100.559C400.757 113.999 408.292 130.652 410.594 148.392C412.896 166.132 409.862 184.156 401.879 200.165C397.194 214.63 388.047 227.238 375.751 236.181C363.455 245.124 348.641 249.941 333.437 249.942H321.345Z" fill="url(#paint1_linear_356_511)"/>
<path d="M333.437 248.941C341.157 248.941 348.748 247.709 355.998 245.278C363.009 242.927 369.59 239.496 375.56 235.081C381.462 230.717 386.635 225.489 390.936 219.542C395.29 213.522 398.652 206.899 400.928 199.857L400.951 199.785L400.985 199.717C404.011 193.67 406.341 187.272 407.911 180.703C409.526 173.942 410.345 166.957 410.345 159.941C410.345 153.902 409.737 147.867 408.537 142.004C407.368 136.29 405.623 130.67 403.352 125.299C401.121 120.026 398.361 114.939 395.146 110.182C391.962 105.469 388.306 101.037 384.278 97.0091C380.25 92.9813 375.819 89.3247 371.106 86.1407C366.348 82.9263 361.261 80.1656 355.988 77.9351C350.617 75.6635 344.997 73.9188 339.283 72.7496C333.42 71.5498 327.385 70.9414 321.345 70.9414C311.346 70.9414 301.531 72.5871 292.172 75.8327L291.383 76.1065L290.973 75.3781C283.357 61.8362 272.279 50.4636 258.937 42.4898C252.189 38.4572 244.94 35.3409 237.391 33.2276C229.602 31.0473 221.512 29.9419 213.345 29.9419C202.361 29.9419 191.638 31.9189 181.475 35.8179C171.657 39.5846 162.65 45.0256 154.705 51.9899C146.806 58.9141 140.251 67.0841 135.221 76.2727C130.069 85.687 126.701 95.8492 125.211 106.477L125.1 107.272L124.299 107.335C115.341 108.036 106.722 110.395 98.6818 114.345C90.8694 118.184 83.8932 123.375 77.947 129.776C65.7289 142.929 59 160.065 59 178.029C59 187.602 60.8748 196.889 64.5723 205.631C66.3495 209.832 68.5491 213.885 71.1102 217.676C73.6472 221.431 76.5607 224.962 79.7699 228.171C82.9791 231.381 86.5104 234.294 90.2655 236.831C94.0565 239.392 98.109 241.592 102.311 243.369C111.052 247.067 120.339 248.941 129.913 248.941H321.345H333.437ZM333.437 249.941H321.345H129.913C90.1966 249.941 58 217.745 58 178.029C58 140.228 87.1646 109.239 124.221 106.338C130.35 62.5993 167.917 28.9419 213.345 28.9419C247.048 28.9419 276.422 47.4651 291.845 74.8879C301.087 71.6826 311.012 69.9414 321.345 69.9414C371.051 69.9414 411.345 110.236 411.345 159.941C411.345 174.398 407.936 188.06 401.879 200.165C392.544 229.05 365.431 249.941 333.437 249.941Z" fill="white" fill-opacity="0.5"/>
</g>
<path d="M96.5442 17.3488C103.097 17.3475 109.634 18.0098 116.053 19.3258C128.443 21.8779 140.207 26.8532 150.668 33.9658C165.161 43.7891 176.741 57.3352 184.189 73.1803C191.638 89.0253 194.681 106.584 192.998 124.012C191.315 141.439 184.969 158.092 174.626 172.219C164.283 186.346 150.326 197.426 134.221 204.295C128.367 206.782 122.279 208.681 116.049 209.964C102.54 212.704 88.601 212.534 75.1622 209.465C61.7233 206.396 49.0929 200.498 38.1122 192.165C27.1316 183.831 18.053 173.254 11.4813 161.136C4.90956 149.019 0.995615 135.64 0.000213623 121.891C5.63343 123.211 11.4003 123.877 17.1862 123.875C32.0885 123.899 46.655 119.449 59.0002 111.102C71.025 102.987 80.4385 91.5584 86.1002 78.2018C89.9978 68.9924 91.9967 59.0911 91.9772 49.0908C91.978 43.6601 91.3909 38.2452 90.2262 32.9408C89.0925 27.801 87.4164 22.7959 85.2262 18.0098C88.9829 17.5708 92.7619 17.3501 96.5442 17.3488V17.3488Z" fill="#713FFD"/>
<g filter="url(#filter2_f_356_511)">
<path d="M162.048 47.4269C140.318 27.8611 111.85 24.0515 98.4646 38.918C85.0787 53.7845 91.8431 81.6975 113.573 101.263C135.303 120.829 163.77 124.639 177.156 109.772C190.542 94.9057 183.778 66.9928 162.048 47.4269Z" fill="#A586FC"/>
</g>
<path d="M130.53 223.424H177.176L150.361 262.802L181.714 263.396L115.906 341.284L131.851 281.9H102.66L130.53 223.424Z" fill="url(#paint2_linear_356_511)"/>
<g filter="url(#filter3_d_356_511)">
<path d="M321.345 249.942H129.913C111.343 249.928 93.4976 242.73 80.1137 229.857C66.7298 216.983 58.8447 199.431 58.1092 180.875C57.3737 162.319 63.8448 144.198 76.1677 130.306C88.4906 116.413 105.71 107.826 124.221 106.342C126.861 87.7018 135.278 70.3585 148.289 56.7518C161.299 43.1451 178.248 33.9598 196.752 30.4882C215.255 27.0166 234.381 29.4334 251.439 37.3986C268.497 45.3637 282.628 58.4764 291.845 74.8918C308.75 69.04 327.015 68.3561 344.31 72.9275C361.605 77.4989 377.146 87.1183 388.952 100.559C400.757 113.999 408.292 130.652 410.594 148.392C412.896 166.132 409.862 184.156 401.879 200.165C397.194 214.63 388.047 227.238 375.751 236.181C363.455 245.124 348.641 249.941 333.437 249.942H321.345Z" fill="url(#paint3_linear_356_511)"/>
<path d="M333.437 248.941C341.157 248.941 348.748 247.709 355.998 245.278C363.009 242.927 369.59 239.496 375.56 235.081C381.462 230.717 386.635 225.489 390.936 219.542C395.29 213.522 398.652 206.899 400.928 199.857L400.951 199.785L400.985 199.717C404.011 193.67 406.341 187.272 407.911 180.703C409.526 173.942 410.345 166.957 410.345 159.941C410.345 153.902 409.737 147.867 408.537 142.004C407.368 136.29 405.623 130.67 403.352 125.299C401.121 120.026 398.361 114.939 395.146 110.182C391.962 105.469 388.306 101.037 384.278 97.0091C380.25 92.9813 375.819 89.3247 371.106 86.1407C366.348 82.9263 361.261 80.1656 355.988 77.9351C350.617 75.6635 344.997 73.9188 339.283 72.7496C333.42 71.5498 327.385 70.9414 321.345 70.9414C311.346 70.9414 301.531 72.5871 292.172 75.8327L291.383 76.1065L290.973 75.3781C283.357 61.8362 272.279 50.4636 258.937 42.4898C252.189 38.4572 244.94 35.3409 237.391 33.2276C229.602 31.0473 221.512 29.9419 213.345 29.9419C202.361 29.9419 191.638 31.9189 181.475 35.8179C171.657 39.5846 162.65 45.0256 154.705 51.9899C146.806 58.9141 140.251 67.0841 135.221 76.2727C130.069 85.687 126.701 95.8492 125.211 106.477L125.1 107.272L124.299 107.335C115.341 108.036 106.722 110.395 98.6818 114.345C90.8694 118.184 83.8932 123.375 77.947 129.776C65.7289 142.929 59 160.065 59 178.029C59 187.602 60.8748 196.889 64.5723 205.631C66.3495 209.832 68.5491 213.885 71.1102 217.676C73.6472 221.431 76.5607 224.962 79.7699 228.171C82.9791 231.381 86.5104 234.294 90.2655 236.831C94.0565 239.392 98.109 241.592 102.311 243.369C111.052 247.067 120.339 248.941 129.913 248.941H321.345H333.437ZM333.437 249.941H321.345H129.913C90.1966 249.941 58 217.745 58 178.029C58 140.228 87.1646 109.239 124.221 106.338C130.35 62.5993 167.917 28.9419 213.345 28.9419C247.048 28.9419 276.422 47.4651 291.845 74.8879C301.087 71.6826 311.012 69.9414 321.345 69.9414C371.051 69.9414 411.345 110.236 411.345 159.941C411.345 174.398 407.936 188.06 401.879 200.165C392.544 229.05 365.431 249.941 333.437 249.941Z" fill="white" fill-opacity="0.5"/>
</g>
<defs>
<filter id="filter0_f_356_511" x="71.5918" y="9.84912" width="132.437" height="128.992" filterUnits="userSpaceOnUse" color-interpolation-filters="sRGB">
<feFlood flood-opacity="0" result="BackgroundImageFix"/>
<feBlend mode="normal" in="SourceGraphic" in2="BackgroundImageFix" result="shape"/>
<feGaussianBlur stdDeviation="10" result="effect1_foregroundBlur_356_511"/>
</filter>
<filter id="filter1_d_356_511" x="38" y="0.941895" width="413.346" height="281" filterUnits="userSpaceOnUse" color-interpolation-filters="sRGB">
<feFlood flood-opacity="0" result="BackgroundImageFix"/>
<feColorMatrix in="SourceAlpha" type="matrix" values="0 0 0 0 0 0 0 0 0 0 0 0 0 0 0 0 0 0 127 0" result="hardAlpha"/>
<feOffset dx="10" dy="2"/>
<feGaussianBlur stdDeviation="15"/>
<feColorMatrix type="matrix" values="0 0 0 0 0.258824 0 0 0 0 0.627451 0 0 0 0 0.941176 0 0 0 0.596 0"/>
<feBlend mode="normal" in2="BackgroundImageFix" result="effect1_dropShadow_356_511"/>
<feBlend mode="normal" in="SourceGraphic" in2="effect1_dropShadow_356_511" result="shape"/>
</filter>
<filter id="filter2_f_356_511" x="71.5918" y="9.84912" width="132.437" height="128.992" filterUnits="userSpaceOnUse" color-interpolation-filters="sRGB">
<feFlood flood-opacity="0" result="BackgroundImageFix"/>
<feBlend mode="normal" in="SourceGraphic" in2="BackgroundImageFix" result="shape"/>
<feGaussianBlur stdDeviation="10" result="effect1_foregroundBlur_356_511"/>
</filter>
<filter id="filter3_d_356_511" x="38" y="0.941895" width="413.346" height="281" filterUnits="userSpaceOnUse" color-interpolation-filters="sRGB">
<feFlood flood-opacity="0" result="BackgroundImageFix"/>
<feColorMatrix in="SourceAlpha" type="matrix" values="0 0 0 0 0 0 0 0 0 0 0 0 0 0 0 0 0 0 127 0" result="hardAlpha"/>
<feOffset dx="10" dy="2"/>
<feGaussianBlur stdDeviation="15"/>
<feColorMatrix type="matrix" values="0 0 0 0 0.258824 0 0 0 0 0.627451 0 0 0 0 0.941176 0 0 0 0.596 0"/>
<feBlend mode="normal" in2="BackgroundImageFix" result="effect1_dropShadow_356_511"/>
<feBlend mode="normal" in="SourceGraphic" in2="effect1_dropShadow_356_511" result="shape"/>
</filter>
<linearGradient id="paint0_linear_356_511" x1="134.914" y1="282.354" x2="97.9877" y2="268.816" gradientUnits="userSpaceOnUse">
<stop stop-color="#FFD100"/>
<stop offset="1" stop-color="#FFF0AA"/>
</linearGradient>
<linearGradient id="paint1_linear_356_511" x1="234.698" y1="28.9443" x2="337.341" y2="277.108" gradientUnits="userSpaceOnUse">
<stop stop-color="white" stop-opacity="0.604"/>
<stop offset="1" stop-color="white" stop-opacity="0.2"/>
</linearGradient>
<linearGradient id="paint2_linear_356_511" x1="134.914" y1="282.354" x2="97.9877" y2="268.816" gradientUnits="userSpaceOnUse">
<stop stop-color="#FFD100"/>
<stop offset="1" stop-color="#FFF0AA"/>
</linearGradient>
<linearGradient id="paint3_linear_356_511" x1="234.698" y1="28.9443" x2="337.341" y2="277.108" gradientUnits="userSpaceOnUse">
<stop stop-color="white" stop-opacity="0.604"/>
<stop offset="1" stop-color="white" stop-opacity="0.2"/>
</linearGradient>
</defs>
</svg>
