<svg viewBox="0 0 246 258" fill="none" xmlns="http://www.w3.org/2000/svg">
<g filter="url(#filter0_f_334_138)">
<path d="M124.446 253.754C189.023 253.754 241.374 201.138 241.374 136.233C241.374 71.3283 189.023 18.7124 124.446 18.7124C59.868 18.7124 7.51758 71.3283 7.51758 136.233C7.51758 201.138 59.868 253.754 124.446 253.754Z" fill="#FA9E42"/>
<g filter="url(#filter1_f_334_138)">
<path d="M115.997 119.521C154.858 98.8802 176.594 63.7582 164.545 41.0738C152.496 18.3895 111.226 16.733 72.3645 37.3739C33.5033 58.0148 11.7674 93.1368 23.816 115.821C35.8647 138.506 77.1353 140.162 115.997 119.521Z" fill="#F8E36F"/>
</g>
</g>
<defs>
<filter id="filter0_f_334_138" x="3.51758" y="14.7124" width="241.856" height="243.042" filterUnits="userSpaceOnUse" color-interpolation-filters="sRGB">
<feFlood flood-opacity="0" result="BackgroundImageFix"/>
<feBlend mode="normal" in="SourceGraphic" in2="BackgroundImageFix" result="shape"/>
<feGaussianBlur stdDeviation="2" result="effect1_foregroundBlur_334_138"/>
</filter>
<filter id="filter1_f_334_138" x="0.492188" y="2.91504" width="187.377" height="151.065" filterUnits="userSpaceOnUse" color-interpolation-filters="sRGB">
<feFlood flood-opacity="0" result="BackgroundImageFix"/>
<feBlend mode="normal" in="SourceGraphic" in2="BackgroundImageFix" result="shape"/>
<feGaussianBlur stdDeviation="10" result="effect1_foregroundBlur_334_138"/>
</filter>
</defs>
</svg>
