<svg width="424" height="344" viewBox="0 0 424 344" fill="none" xmlns="http://www.w3.org/2000/svg">
<path d="M108.148 214.763C162.548 214.763 206.648 170.439 206.648 115.763C206.648 61.0868 162.548 16.7629 108.148 16.7629C53.7484 16.7629 9.64844 61.0868 9.64844 115.763C9.64844 170.439 53.7484 214.763 108.148 214.763Z" fill="#FA9E42"/>
<g filter="url(#filter0_f_340_670)">
<path d="M101.03 101.684C133.767 84.2964 152.077 54.7096 141.928 35.6004C131.778 16.4912 97.0115 15.0957 64.2749 32.4835C31.5383 49.8714 13.228 79.4581 23.3778 98.5674C33.5275 117.677 68.2938 119.072 101.03 101.684Z" fill="#F8E36F"/>
</g>
<path d="M114.701 220.294C115.332 220.312 121.736 245.542 121.736 255.346C121.736 265.15 118.586 273.099 114.701 273.099C110.816 273.099 107.666 265.151 107.666 255.347C107.666 245.543 114.066 220.277 114.701 220.294Z" fill="#42A0F0"/>
<path d="M113.629 249.716C114.656 250.073 114.969 252.293 114.327 254.676C113.685 257.06 112.331 258.702 111.303 258.346C110.275 257.99 109.962 255.768 110.605 253.385C111.248 251.002 112.6 249.359 113.629 249.716Z" fill="white"/>
<path d="M174.632 220.294C175.263 220.312 181.667 245.542 181.667 255.346C181.667 265.15 178.517 273.099 174.632 273.099C170.747 273.099 167.597 265.151 167.597 255.347C167.597 245.543 173.997 220.277 174.632 220.294Z" fill="#42A0F0"/>
<path d="M173.559 249.716C174.587 250.073 174.899 252.293 174.257 254.676C173.615 257.06 172.261 258.702 171.233 258.346C170.206 257.99 169.892 255.768 170.535 253.385C171.178 251.002 172.53 249.359 173.559 249.716Z" fill="white"/>
<path d="M234.563 220.294C235.194 220.312 241.598 245.542 241.598 255.346C241.598 265.15 238.448 273.099 234.563 273.099C230.678 273.099 227.528 265.151 227.528 255.347C227.528 245.543 233.928 220.277 234.563 220.294Z" fill="#42A0F0"/>
<path d="M233.491 249.716C234.518 250.073 234.831 252.293 234.189 254.676C233.547 257.06 232.193 258.702 231.165 258.346C230.137 257.99 229.824 255.768 230.467 253.385C231.11 251.002 232.462 249.359 233.491 249.716Z" fill="white"/>
<path d="M294.494 217.294C295.125 217.312 301.529 242.542 301.529 252.346C301.529 262.15 298.379 270.099 294.494 270.099C290.609 270.099 287.459 262.151 287.459 252.347C287.459 242.543 293.859 217.277 294.494 217.294Z" fill="#42A0F0"/>
<path d="M293.422 246.716C294.449 247.073 294.762 249.293 294.12 251.676C293.478 254.06 292.124 255.702 291.096 255.346C290.068 254.99 289.755 252.768 290.398 250.385C291.041 248.002 292.393 246.359 293.422 246.716Z" fill="white"/>
<path d="M202.834 287.294C203.465 287.312 209.869 312.542 209.869 322.346C209.869 332.15 206.719 340.099 202.834 340.099C198.949 340.099 195.799 332.151 195.799 322.347C195.799 312.543 202.199 287.277 202.834 287.294Z" fill="#42A0F0"/>
<path d="M201.761 316.716C202.789 317.073 203.101 319.293 202.459 321.676C201.818 324.06 200.463 325.702 199.436 325.346C198.408 324.99 198.095 322.768 198.737 320.385C199.38 318.002 200.733 316.359 201.761 316.716Z" fill="white"/>
<path d="M262.764 287.294C263.395 287.312 269.799 312.542 269.799 322.346C269.799 332.15 266.649 340.099 262.764 340.099C258.879 340.099 255.729 332.151 255.729 322.347C255.729 312.543 262.129 287.277 262.764 287.294Z" fill="#42A0F0"/>
<path d="M261.692 316.716C262.72 317.073 263.032 319.293 262.39 321.676C261.748 324.06 260.394 325.702 259.366 325.346C258.338 324.99 258.025 322.768 258.668 320.385C259.311 318.002 260.663 316.359 261.692 316.716Z" fill="white"/>
<path d="M326.222 287.294C326.853 287.312 333.257 312.542 333.257 322.346C333.257 332.15 330.107 340.099 326.222 340.099C322.337 340.099 319.187 332.151 319.187 322.347C319.187 312.543 325.587 287.277 326.222 287.294Z" fill="#42A0F0"/>
<path d="M325.149 316.716C326.177 317.073 326.489 319.293 325.847 321.676C325.205 324.06 323.851 325.702 322.823 325.346C321.795 324.99 321.482 322.768 322.125 320.385C322.768 318.002 324.12 316.359 325.149 316.716Z" fill="white"/>
<path d="M142.904 290.294C143.535 290.312 149.939 315.542 149.939 325.346C149.939 335.15 146.789 343.099 142.904 343.099C139.019 343.099 135.869 335.151 135.869 325.347C135.869 315.543 142.269 290.277 142.904 290.294Z" fill="#42A0F0"/>
<path d="M141.832 319.716C142.859 320.073 143.172 322.293 142.53 324.676C141.888 327.06 140.534 328.702 139.506 328.346C138.478 327.99 138.165 325.768 138.808 323.385C139.451 321.002 140.803 319.359 141.832 319.716Z" fill="white"/>
<path d="M86.4979 287.294C87.1289 287.312 93.5329 312.542 93.5329 322.346C93.5329 332.15 90.3829 340.099 86.4979 340.099C82.6129 340.099 79.4629 332.151 79.4629 322.347C79.4629 312.543 85.8629 287.277 86.4979 287.294Z" fill="#42A0F0"/>
<path d="M85.4255 316.716C86.453 317.073 86.7654 319.293 86.1235 321.676C85.4816 324.06 84.1274 325.702 83.0996 325.346C82.0718 324.99 81.7587 322.768 82.4015 320.385C83.0444 318.002 84.3967 316.359 85.4255 316.716Z" fill="white"/>
<g filter="url(#filter1_d_340_670)">
<path d="M293.345 279.937H101.913C83.3426 279.923 65.4976 272.726 52.1137 259.852C38.7298 246.978 30.8447 229.426 30.1092 210.87C29.3737 192.314 35.8448 174.193 48.1677 160.301C60.4906 146.408 77.71 137.821 96.221 136.337C98.8608 117.697 107.278 100.354 120.289 86.7469C133.299 73.1402 150.248 63.9549 168.752 60.4833C187.255 57.0117 206.381 59.4285 223.439 67.3937C240.497 75.3589 254.628 88.4715 263.845 104.887C280.75 99.0351 299.015 98.3512 316.31 102.923C333.605 107.494 349.146 117.113 360.952 130.554C372.757 143.994 380.292 160.647 382.594 178.387C384.896 196.127 381.862 214.151 373.879 230.16C369.194 244.625 360.047 257.233 347.751 266.176C335.455 275.119 320.641 279.937 305.437 279.937H293.345Z" fill="url(#paint0_linear_340_670)"/>
<path d="M305.437 278.937C313.157 278.937 320.748 277.704 327.998 275.273C335.009 272.922 341.59 269.491 347.56 265.076C353.462 260.712 358.635 255.484 362.936 249.537C367.29 243.517 370.652 236.894 372.928 229.852L372.951 229.78L372.985 229.712C376.011 223.665 378.341 217.267 379.911 210.698C381.526 203.937 382.345 196.952 382.345 189.937C382.345 183.897 381.737 177.862 380.537 171.999C379.368 166.285 377.623 160.665 375.352 155.294C373.121 150.021 370.361 144.935 367.146 140.177C363.962 135.464 360.306 131.032 356.278 127.004C352.25 122.976 347.819 119.32 343.106 116.136C338.348 112.921 333.261 110.161 327.988 107.93C322.617 105.659 316.997 103.914 311.283 102.745C305.42 101.545 299.385 100.937 293.345 100.937C283.346 100.937 273.531 102.582 264.172 105.828L263.383 106.102L262.973 105.373C255.357 91.8313 244.279 80.4587 230.937 72.4849C224.189 68.4523 216.94 65.3361 209.391 63.2227C201.602 61.0425 193.512 59.937 185.345 59.937C174.361 59.937 163.638 61.914 153.475 65.8131C143.657 69.5797 134.65 75.0207 126.705 81.985C118.806 88.9092 112.251 97.0792 107.221 106.268C102.069 115.682 98.7006 125.844 97.2113 136.472L97.0998 137.267L96.299 137.33C87.3408 138.031 78.7219 140.39 70.6818 144.34C62.8694 148.179 55.8932 153.371 49.947 159.771C37.7289 172.924 31 190.06 31 208.024C31 217.597 32.8748 226.884 36.5723 235.626C38.3495 239.828 40.5491 243.88 43.1102 247.671C45.6472 251.426 48.5607 254.957 51.7699 258.167C54.9791 261.376 58.5104 264.289 62.2655 266.826C66.0565 269.387 70.109 271.587 74.3106 273.364C83.0525 277.062 92.3391 278.937 101.913 278.937H293.345H305.437ZM305.437 279.937H293.345H101.913C62.1966 279.937 30 247.74 30 208.024C30 170.223 59.1646 139.234 96.221 136.333C102.35 92.5944 139.917 58.937 185.345 58.937C219.048 58.937 248.422 77.4602 263.845 104.883C273.087 101.678 283.012 99.9365 293.345 99.9365C343.051 99.9365 383.345 140.231 383.345 189.937C383.345 204.393 379.936 218.055 373.879 230.16C364.544 259.045 337.431 279.937 305.437 279.937Z" fill="white" fill-opacity="0.5"/>
</g>
<defs>
<filter id="filter0_f_340_670" x="0.578125" y="0.303223" width="164.149" height="133.561" filterUnits="userSpaceOnUse" color-interpolation-filters="sRGB">
<feFlood flood-opacity="0" result="BackgroundImageFix"/>
<feBlend mode="normal" in="SourceGraphic" in2="BackgroundImageFix" result="shape"/>
<feGaussianBlur stdDeviation="10" result="effect1_foregroundBlur_340_670"/>
</filter>
<filter id="filter1_d_340_670" x="10" y="30.937" width="413.346" height="281" filterUnits="userSpaceOnUse" color-interpolation-filters="sRGB">
<feFlood flood-opacity="0" result="BackgroundImageFix"/>
<feColorMatrix in="SourceAlpha" type="matrix" values="0 0 0 0 0 0 0 0 0 0 0 0 0 0 0 0 0 0 127 0" result="hardAlpha"/>
<feOffset dx="10" dy="2"/>
<feGaussianBlur stdDeviation="15"/>
<feColorMatrix type="matrix" values="0 0 0 0 0.258824 0 0 0 0 0.627451 0 0 0 0 0.941176 0 0 0 0.596 0"/>
<feBlend mode="normal" in2="BackgroundImageFix" result="effect1_dropShadow_340_670"/>
<feBlend mode="normal" in="SourceGraphic" in2="effect1_dropShadow_340_670" result="shape"/>
</filter>
<linearGradient id="paint0_linear_340_670" x1="206.698" y1="58.9395" x2="309.341" y2="307.103" gradientUnits="userSpaceOnUse">
<stop stop-color="white" stop-opacity="0.604"/>
<stop offset="1" stop-color="white" stop-opacity="0.2"/>
</linearGradient>
</defs>
</svg>
