<svg width="432" height="374" viewBox="0 0 432 374" fill="none" xmlns="http://www.w3.org/2000/svg">
<path d="M197.333 201.763H265.405L226.272 259.229L272.027 260.095L175.99 373.763L199.26 287.1H156.66L197.333 201.763Z" fill="url(#paint0_linear_340_271)"/>
<path d="M302.518 262.246H332.405L315.224 287.477L335.313 287.857L293.147 337.763L303.364 299.714H284.664L302.518 262.246Z" fill="url(#paint1_linear_340_271)"/>
<path d="M95.5181 287.763H125.405L108.224 312.994L128.313 313.374L86.1471 363.28L96.3641 325.231H77.6641L95.5181 287.763Z" fill="url(#paint2_linear_340_271)"/>
<path d="M108.148 214.763C162.548 214.763 206.648 170.439 206.648 115.763C206.648 61.0868 162.548 16.7629 108.148 16.7629C53.7484 16.7629 9.64844 61.0868 9.64844 115.763C9.64844 170.439 53.7484 214.763 108.148 214.763Z" fill="#FA9E42"/>
<g filter="url(#filter0_f_340_271)">
<path d="M101.03 101.684C133.767 84.2964 152.077 54.7096 141.928 35.6004C131.778 16.4912 97.0115 15.0957 64.2749 32.4835C31.5383 49.8714 13.228 79.4581 23.3778 98.5674C33.5275 117.677 68.2938 119.072 101.03 101.684Z" fill="#F8E36F"/>
</g>
<g filter="url(#filter1_d_340_271)">
<path d="M301.345 275.764H109.913C91.3426 275.75 73.4976 268.553 60.1137 255.679C46.7298 242.805 38.8447 225.253 38.1092 206.697C37.3737 188.142 43.8448 170.021 56.1677 156.128C68.4906 142.235 85.71 133.648 104.221 132.164C106.861 113.524 115.278 96.1808 128.289 82.5741C141.299 68.9674 158.248 59.7821 176.752 56.3105C195.255 52.8389 214.381 55.2557 231.439 63.2208C248.497 71.186 262.628 84.2987 271.845 100.714C288.75 94.8621 307.015 94.1784 324.311 98.7501C341.606 103.322 357.148 112.942 368.953 126.383C380.759 139.824 388.293 156.477 390.594 174.217C392.896 191.958 389.861 209.982 381.877 225.991C377.192 240.455 368.045 253.062 355.749 262.004C343.453 270.946 328.641 275.763 313.437 275.764H301.345Z" fill="url(#paint3_linear_340_271)"/>
<path d="M313.437 274.764C321.156 274.764 328.746 273.531 335.996 271.1C343.006 268.749 349.587 265.319 355.557 260.904C361.458 256.54 366.631 251.312 370.932 245.366C375.287 239.346 378.649 232.724 380.925 225.683L380.949 225.611L380.983 225.543C384.01 219.495 386.341 213.097 387.911 206.527C389.526 199.767 390.345 192.781 390.345 185.764C390.345 179.724 389.737 173.689 388.537 167.826C387.368 162.112 385.623 156.492 383.352 151.121C381.121 145.848 378.36 140.762 375.146 136.004C371.962 131.291 368.305 126.859 364.278 122.831C360.25 118.803 355.818 115.147 351.105 111.963C346.347 108.748 341.261 105.988 335.988 103.757C330.617 101.486 324.997 99.7409 319.283 98.5717C313.42 97.3719 307.384 96.7635 301.345 96.7635C291.346 96.7635 281.531 98.4092 272.172 101.655L271.383 101.929L270.973 101.2C263.357 87.6583 252.279 76.2857 238.937 68.3119C232.189 64.2793 224.94 61.163 217.391 59.0497C209.602 56.8695 201.512 55.764 193.345 55.764C182.361 55.764 171.638 57.741 161.475 61.6401C151.657 65.4067 142.65 70.8478 134.705 77.812C126.806 84.7363 120.251 92.9062 115.221 102.095C110.069 111.509 106.701 121.671 105.211 132.299L105.1 133.094L104.299 133.157C95.3408 133.858 86.7219 136.217 78.6818 140.167C70.8694 144.006 63.8932 149.198 57.947 155.598C45.7289 168.751 39 185.887 39 203.851C39 213.424 40.8748 222.711 44.5723 231.453C46.3495 235.655 48.5491 239.707 51.1102 243.498C53.6472 247.253 56.5607 250.784 59.7699 253.994C62.9791 257.203 66.5104 260.116 70.2655 262.653C74.0565 265.214 78.109 267.414 82.3106 269.191C91.0525 272.889 100.339 274.764 109.913 274.764H301.345H313.437ZM313.437 275.764H301.345H109.913C70.1966 275.764 38 243.567 38 203.851C38 166.05 67.1646 135.061 104.221 132.16C110.35 88.4214 147.917 54.764 193.345 54.764C227.048 54.764 256.422 73.2872 271.845 100.71C281.087 97.5046 291.012 95.7635 301.345 95.7635C351.051 95.7635 391.345 136.058 391.345 185.764C391.345 200.223 387.936 213.885 381.877 225.991C372.54 254.873 345.427 275.764 313.437 275.764Z" fill="white" fill-opacity="0.5"/>
</g>
<defs>
<filter id="filter0_f_340_271" x="0.578125" y="0.303345" width="164.149" height="133.561" filterUnits="userSpaceOnUse" color-interpolation-filters="sRGB">
<feFlood flood-opacity="0" result="BackgroundImageFix"/>
<feBlend mode="normal" in="SourceGraphic" in2="BackgroundImageFix" result="shape"/>
<feGaussianBlur stdDeviation="10" result="effect1_foregroundBlur_340_271"/>
</filter>
<filter id="filter1_d_340_271" x="18" y="26.764" width="413.346" height="281" filterUnits="userSpaceOnUse" color-interpolation-filters="sRGB">
<feFlood flood-opacity="0" result="BackgroundImageFix"/>
<feColorMatrix in="SourceAlpha" type="matrix" values="0 0 0 0 0 0 0 0 0 0 0 0 0 0 0 0 0 0 127 0" result="hardAlpha"/>
<feOffset dx="10" dy="2"/>
<feGaussianBlur stdDeviation="15"/>
<feColorMatrix type="matrix" values="0 0 0 0 0.258824 0 0 0 0 0.627451 0 0 0 0 0.941176 0 0 0 0.596 0"/>
<feBlend mode="normal" in2="BackgroundImageFix" result="effect1_dropShadow_340_271"/>
<feBlend mode="normal" in="SourceGraphic" in2="effect1_dropShadow_340_271" result="shape"/>
</filter>
<linearGradient id="paint0_linear_340_271" x1="203.73" y1="287.763" x2="149.841" y2="268.007" gradientUnits="userSpaceOnUse">
<stop stop-color="#FFD100"/>
<stop offset="1" stop-color="#FFF0AA"/>
</linearGradient>
<linearGradient id="paint1_linear_340_271" x1="305.329" y1="300.004" x2="281.67" y2="291.332" gradientUnits="userSpaceOnUse">
<stop stop-color="#FFD100"/>
<stop offset="1" stop-color="#FFF0AA"/>
</linearGradient>
<linearGradient id="paint2_linear_340_271" x1="98.3289" y1="325.522" x2="74.67" y2="316.849" gradientUnits="userSpaceOnUse">
<stop stop-color="#FFD100"/>
<stop offset="1" stop-color="#FFF0AA"/>
</linearGradient>
<linearGradient id="paint3_linear_340_271" x1="214.698" y1="54.7666" x2="317.341" y2="302.93" gradientUnits="userSpaceOnUse">
<stop stop-color="white" stop-opacity="0.604"/>
<stop offset="1" stop-color="white" stop-opacity="0.2"/>
</linearGradient>
</defs>
</svg>
