<svg width="289" height="190" viewBox="0 0 289 190" fill="none" xmlns="http://www.w3.org/2000/svg">
<path d="M147.907 43.6721C147.907 43.6721 138.143 56.9081 130.512 56.4721C120.946 55.9101 119.312 44.3721 110.444 43.6721C101.166 43.8111 100.219 55.7721 90.1629 56.4721C81.1529 56.3111 77.3359 43.8901 68.7469 43.6721C60.1579 43.4541 51.0029 56.4721 51.0029 56.4721" stroke="white" stroke-width="16" stroke-linecap="round"/>
<path d="M153.919 117.672C153.919 117.672 139.219 130.908 127.726 130.472C113.326 129.91 110.855 118.372 97.508 117.672C83.538 117.811 82.108 129.772 66.969 130.472C53.403 130.309 47.655 117.889 34.719 117.672C21.783 117.455 8 130.472 8 130.472" stroke="white" stroke-width="16" stroke-linecap="round"/>
<path d="M237.919 168.672C237.919 168.672 223.219 181.908 211.726 181.472C197.326 180.91 194.855 169.372 181.508 168.672C167.538 168.811 166.108 180.772 150.969 181.472C137.403 181.309 131.655 168.889 118.719 168.672C105.783 168.455 92 181.472 92 181.472" stroke="white" stroke-width="16" stroke-linecap="round"/>
<path d="M203.43 19.4441L240.445 111.061" stroke="#42A0F0" stroke-width="10" stroke-linecap="round"/>
<path d="M212.66 41.7655L190.301 31.8527" stroke="#42A0F0" stroke-width="10" stroke-linecap="round"/>
<path d="M212.66 41.7655L222.368 18.897" stroke="#42A0F0" stroke-width="10" stroke-linecap="round"/>
<path d="M232.402 90.6272L223.204 113.29" stroke="#42A0F0" stroke-width="10" stroke-linecap="round"/>
<path d="M232.402 90.6272L255.271 100.334" stroke="#42A0F0" stroke-width="10" stroke-linecap="round"/>
<path d="M173.385 58.6674L271.235 72.4194" stroke="#42A0F0" stroke-width="10" stroke-linecap="round"/>
<path d="M197.33 61.8339L177.566 76.2415" stroke="#42A0F0" stroke-width="10" stroke-linecap="round"/>
<path d="M197.331 61.8339L182.379 41.993" stroke="#42A0F0" stroke-width="10" stroke-linecap="round"/>
<path d="M249.516 69.1682L264.544 88.4654" stroke="#42A0F0" stroke-width="10" stroke-linecap="round"/>
<path d="M249.517 69.1682L269.357 54.217" stroke="#42A0F0" stroke-width="10" stroke-linecap="round"/>
<path d="M192.33 104.299L253.165 26.4341" stroke="#42A0F0" stroke-width="10" stroke-linecap="round"/>
<path d="M207.046 85.1441L209.641 109.464" stroke="#42A0F0" stroke-width="10" stroke-linecap="round"/>
<path d="M207.046 85.1441L182.388 88.1718" stroke="#42A0F0" stroke-width="10" stroke-linecap="round"/>
<path d="M239.49 43.6168L263.716 40.2511" stroke="#42A0F0" stroke-width="10" stroke-linecap="round"/>
<path d="M239.491 43.6168L236.463 18.9585" stroke="#42A0F0" stroke-width="10" stroke-linecap="round"/>
</svg>
