<svg width="423" height="343" viewBox="0 0 423 343" fill="none" xmlns="http://www.w3.org/2000/svg">
<path d="M108.148 214.763C162.548 214.763 206.648 170.439 206.648 115.763C206.648 61.0868 162.548 16.7629 108.148 16.7629C53.7484 16.7629 9.64844 61.0868 9.64844 115.763C9.64844 170.439 53.7484 214.763 108.148 214.763Z" fill="#FA9E42"/>
<g filter="url(#filter0_f_340_2)">
<path d="M101.03 101.684C133.767 84.2964 152.077 54.7096 141.928 35.6004C131.778 16.4912 97.0115 15.0957 64.2749 32.4835C31.5383 49.8714 13.228 79.4581 23.3778 98.5674C33.5275 117.677 68.2938 119.072 101.03 101.684Z" fill="#F8E36F"/>
</g>
<path d="M107.818 289.937C109.418 289.955 125.636 315.278 125.636 325.119C125.636 329.845 123.759 334.377 120.417 337.718C117.076 341.06 112.544 342.937 107.818 342.937C103.092 342.937 98.5603 341.06 95.2188 337.718C91.8772 334.377 90 329.845 90 325.119C90 315.279 106.219 289.919 107.818 289.937Z" fill="#42A0F0"/>
<path d="M94.2331 331.779C96.0135 332.323 98.2763 330.084 99.2871 326.778C100.298 323.471 99.674 320.35 97.8936 319.806C96.1132 319.261 93.8505 321.5 92.8397 324.807C91.8289 328.113 92.4527 331.234 94.2331 331.779Z" fill="white"/>
<path d="M200.818 289.937C202.418 289.955 218.636 315.278 218.636 325.119C218.636 329.845 216.759 334.377 213.417 337.718C210.076 341.06 205.544 342.937 200.818 342.937C196.092 342.937 191.56 341.06 188.219 337.718C184.877 334.377 183 329.845 183 325.119C183 315.279 199.219 289.919 200.818 289.937Z" fill="#42A0F0"/>
<path d="M187.233 331.779C189.014 332.323 191.276 330.084 192.287 326.778C193.298 323.471 192.674 320.35 190.894 319.806C189.113 319.261 186.85 321.5 185.84 324.807C184.829 328.113 185.453 331.234 187.233 331.779Z" fill="white"/>
<path d="M293.818 289.937C295.418 289.955 311.636 315.278 311.636 325.119C311.636 329.845 309.759 334.377 306.417 337.718C303.076 341.06 298.544 342.937 293.818 342.937C289.092 342.937 284.56 341.06 281.219 337.718C277.877 334.377 276 329.845 276 325.119C276 315.279 292.219 289.919 293.818 289.937Z" fill="#42A0F0"/>
<path d="M280.233 331.779C282.014 332.323 284.276 330.084 285.287 326.778C286.298 323.471 285.674 320.35 283.894 319.806C282.113 319.261 279.85 321.5 278.84 324.807C277.829 328.113 278.453 331.234 280.233 331.779Z" fill="white"/>
<path d="M154.818 211.937C156.418 211.955 172.636 237.278 172.636 247.119C172.636 251.845 170.759 256.377 167.417 259.718C164.076 263.06 159.544 264.937 154.818 264.937C150.092 264.937 145.56 263.06 142.219 259.718C138.877 256.377 137 251.845 137 247.119C137 237.279 153.219 211.919 154.818 211.937Z" fill="#42A0F0"/>
<path d="M141.233 253.779C143.014 254.323 145.276 252.084 146.287 248.778C147.298 245.471 146.674 242.35 144.894 241.806C143.113 241.261 140.85 243.5 139.84 246.807C138.829 250.113 139.453 253.234 141.233 253.779Z" fill="white"/>
<path d="M252.818 211.937C254.418 211.955 270.636 237.278 270.636 247.119C270.636 251.845 268.759 256.377 265.417 259.718C262.076 263.06 257.544 264.937 252.818 264.937C248.092 264.937 243.56 263.06 240.219 259.718C236.877 256.377 235 251.845 235 247.119C235 237.279 251.219 211.919 252.818 211.937Z" fill="#42A0F0"/>
<path d="M239.233 253.779C241.014 254.323 243.276 252.084 244.287 248.778C245.298 245.471 244.674 242.35 242.894 241.806C241.113 241.261 238.85 243.5 237.84 246.807C236.829 250.113 237.453 253.234 239.233 253.779Z" fill="white"/>
<g filter="url(#filter1_d_340_2)">
<path d="M292.998 278.937H101.566C82.9959 278.923 65.1509 271.726 51.767 258.852C38.3831 245.978 30.4981 228.426 29.7625 209.87C29.027 191.314 35.4981 173.193 47.821 159.301C60.1439 145.408 77.3633 136.821 95.8744 135.337C98.5141 116.697 106.931 99.3536 119.942 85.7469C132.953 72.1402 149.902 62.9549 168.405 59.4833C186.908 56.0117 206.034 58.4285 223.092 66.3937C240.15 74.3589 254.281 87.4715 263.498 103.887C280.404 98.035 298.669 97.3512 315.964 101.923C333.259 106.495 348.801 116.115 360.606 129.556C372.412 142.997 379.946 159.65 382.248 177.39C384.55 195.131 381.515 213.155 373.53 229.164C368.845 243.627 359.698 256.235 347.402 265.177C335.106 274.119 320.294 278.936 305.09 278.937H292.998Z" fill="url(#paint0_linear_340_2)"/>
<path d="M305.09 277.937C312.81 277.937 320.399 276.704 327.649 274.273C334.659 271.922 341.241 268.492 347.211 264.077C353.112 259.713 358.285 254.485 362.586 248.539C366.94 242.519 370.302 235.897 372.579 228.856L372.602 228.784L372.636 228.716C375.663 222.668 377.994 216.27 379.564 209.7C381.18 202.94 381.999 195.954 381.999 188.937C381.999 182.897 381.39 176.862 380.191 170.999C379.021 165.285 377.277 159.665 375.005 154.294C372.775 149.021 370.014 143.935 366.799 139.177C363.615 134.464 359.959 130.032 355.931 126.004C351.903 121.976 347.471 118.32 342.759 115.136C338.001 111.921 332.914 109.161 327.641 106.93C322.27 104.659 316.65 102.914 310.936 101.745C305.073 100.545 299.038 99.9365 292.999 99.9365C282.999 99.9365 273.184 101.582 263.826 104.828L263.036 105.102L262.626 104.373C255.01 90.8312 243.933 79.4586 230.59 71.4848C223.843 67.4522 216.593 64.336 209.044 62.2227C201.255 60.0425 193.165 58.937 184.999 58.937C174.014 58.937 163.291 60.914 153.128 64.8131C143.31 68.5797 134.303 74.0207 126.359 80.985C118.459 87.9092 111.904 96.0792 106.875 105.268C101.722 114.682 98.3539 124.844 96.8646 135.472L96.7531 136.267L95.9523 136.33C86.9941 137.031 78.3752 139.39 70.3351 143.34C62.5227 147.179 55.5465 152.371 49.6003 158.771C37.3822 171.924 30.6533 189.06 30.6533 207.024C30.6533 216.597 32.5281 225.884 36.2256 234.626C38.0028 238.828 40.2025 242.88 42.7635 246.671C45.3005 250.426 48.214 253.957 51.4232 257.167C54.6324 260.376 58.1637 263.289 61.9188 265.826C65.7098 268.387 69.7623 270.587 73.964 272.364C82.7058 276.062 91.9925 277.937 101.566 277.937H292.999H305.09ZM305.09 278.937H292.999H101.566C61.8499 278.937 29.6533 246.74 29.6533 207.024C29.6533 169.223 58.818 138.234 95.8743 135.333C102.004 91.5944 139.57 57.937 184.999 57.937C218.701 57.937 248.076 76.4601 263.498 103.883C272.74 100.678 282.666 98.9365 292.999 98.9365C342.704 98.9365 382.999 139.231 382.999 188.937C382.999 203.396 379.589 217.058 373.53 229.164C364.193 258.046 337.081 278.937 305.09 278.937Z" fill="white" fill-opacity="0.5"/>
</g>
<defs>
<filter id="filter0_f_340_2" x="0.578125" y="0.303223" width="164.149" height="133.561" filterUnits="userSpaceOnUse" color-interpolation-filters="sRGB">
<feFlood flood-opacity="0" result="BackgroundImageFix"/>
<feBlend mode="normal" in="SourceGraphic" in2="BackgroundImageFix" result="shape"/>
<feGaussianBlur stdDeviation="10" result="effect1_foregroundBlur_340_2"/>
</filter>
<filter id="filter1_d_340_2" x="9.65332" y="29.937" width="413.346" height="281" filterUnits="userSpaceOnUse" color-interpolation-filters="sRGB">
<feFlood flood-opacity="0" result="BackgroundImageFix"/>
<feColorMatrix in="SourceAlpha" type="matrix" values="0 0 0 0 0 0 0 0 0 0 0 0 0 0 0 0 0 0 127 0" result="hardAlpha"/>
<feOffset dx="10" dy="2"/>
<feGaussianBlur stdDeviation="15"/>
<feColorMatrix type="matrix" values="0 0 0 0 0.258824 0 0 0 0 0.627451 0 0 0 0 0.941176 0 0 0 0.596 0"/>
<feBlend mode="normal" in2="BackgroundImageFix" result="effect1_dropShadow_340_2"/>
<feBlend mode="normal" in="SourceGraphic" in2="effect1_dropShadow_340_2" result="shape"/>
</filter>
<linearGradient id="paint0_linear_340_2" x1="206.351" y1="57.9395" x2="308.994" y2="306.103" gradientUnits="userSpaceOnUse">
<stop stop-color="white" stop-opacity="0.604"/>
<stop offset="1" stop-color="white" stop-opacity="0.2"/>
</linearGradient>
</defs>
</svg>
