<svg width="436" height="346" viewBox="0 0 436 346" fill="none" xmlns="http://www.w3.org/2000/svg">
<path d="M341.339 261V337.792" stroke="#42A0F0" stroke-width="6" stroke-linecap="round"/>
<path d="M341.186 279.771L354.411 266.119" stroke="#42A0F0" stroke-width="6" stroke-linecap="round"/>
<path d="M341.185 279.771L327.533 266.119" stroke="#42A0F0" stroke-width="6" stroke-linecap="round"/>
<path d="M341.186 320.727L354.411 334.379" stroke="#42A0F0" stroke-width="6" stroke-linecap="round"/>
<path d="M341.185 320.727L327.533 334.379" stroke="#42A0F0" stroke-width="6" stroke-linecap="round"/>
<path d="M374.407 280.517L307.903 318.913" stroke="#42A0F0" stroke-width="6" stroke-linecap="round"/>
<path d="M358.074 289.768L376.509 294.396" stroke="#42A0F0" stroke-width="6" stroke-linecap="round"/>
<path d="M358.073 289.769L363.07 271.12" stroke="#42A0F0" stroke-width="6" stroke-linecap="round"/>
<path d="M322.604 310.246L317.394 328.525" stroke="#42A0F0" stroke-width="6" stroke-linecap="round"/>
<path d="M322.604 310.246L303.955 305.249" stroke="#42A0F0" stroke-width="6" stroke-linecap="round"/>
<path d="M374.039 318.913L307.535 280.517" stroke="#42A0F0" stroke-width="6" stroke-linecap="round"/>
<path d="M357.86 309.393L363.07 327.672" stroke="#42A0F0" stroke-width="6" stroke-linecap="round"/>
<path d="M357.86 309.393L376.509 304.396" stroke="#42A0F0" stroke-width="6" stroke-linecap="round"/>
<path d="M322.391 288.916L303.955 293.543" stroke="#42A0F0" stroke-width="6" stroke-linecap="round"/>
<path d="M322.391 288.916L317.394 270.267" stroke="#42A0F0" stroke-width="6" stroke-linecap="round"/>
<path d="M267.339 143V219.792" stroke="#42A0F0" stroke-width="6" stroke-linecap="round"/>
<path d="M267.186 161.771L280.411 148.119" stroke="#42A0F0" stroke-width="6" stroke-linecap="round"/>
<path d="M267.185 161.771L253.533 148.119" stroke="#42A0F0" stroke-width="6" stroke-linecap="round"/>
<path d="M267.186 202.727L280.411 216.379" stroke="#42A0F0" stroke-width="6" stroke-linecap="round"/>
<path d="M267.185 202.727L253.533 216.379" stroke="#42A0F0" stroke-width="6" stroke-linecap="round"/>
<path d="M300.407 162.517L233.903 200.913" stroke="#42A0F0" stroke-width="6" stroke-linecap="round"/>
<path d="M284.074 171.768L302.509 176.396" stroke="#42A0F0" stroke-width="6" stroke-linecap="round"/>
<path d="M284.073 171.769L289.07 153.12" stroke="#42A0F0" stroke-width="6" stroke-linecap="round"/>
<path d="M248.604 192.246L243.394 210.525" stroke="#42A0F0" stroke-width="6" stroke-linecap="round"/>
<path d="M248.604 192.246L229.955 187.249" stroke="#42A0F0" stroke-width="6" stroke-linecap="round"/>
<path d="M300.039 200.913L233.535 162.517" stroke="#42A0F0" stroke-width="6" stroke-linecap="round"/>
<path d="M283.86 191.393L289.07 209.672" stroke="#42A0F0" stroke-width="6" stroke-linecap="round"/>
<path d="M283.86 191.393L302.509 186.396" stroke="#42A0F0" stroke-width="6" stroke-linecap="round"/>
<path d="M248.391 170.916L229.955 175.543" stroke="#42A0F0" stroke-width="6" stroke-linecap="round"/>
<path d="M248.391 170.916L243.394 152.267" stroke="#42A0F0" stroke-width="6" stroke-linecap="round"/>
<path d="M203.339 261V337.792" stroke="#42A0F0" stroke-width="6" stroke-linecap="round"/>
<path d="M203.186 279.771L216.411 266.119" stroke="#42A0F0" stroke-width="6" stroke-linecap="round"/>
<path d="M203.185 279.771L189.533 266.119" stroke="#42A0F0" stroke-width="6" stroke-linecap="round"/>
<path d="M203.186 320.727L216.411 334.379" stroke="#42A0F0" stroke-width="6" stroke-linecap="round"/>
<path d="M203.185 320.727L189.533 334.379" stroke="#42A0F0" stroke-width="6" stroke-linecap="round"/>
<path d="M236.407 280.517L169.903 318.913" stroke="#42A0F0" stroke-width="6" stroke-linecap="round"/>
<path d="M220.074 289.768L238.509 294.396" stroke="#42A0F0" stroke-width="6" stroke-linecap="round"/>
<path d="M220.073 289.769L225.07 271.12" stroke="#42A0F0" stroke-width="6" stroke-linecap="round"/>
<path d="M184.604 310.246L179.394 328.525" stroke="#42A0F0" stroke-width="6" stroke-linecap="round"/>
<path d="M184.604 310.246L165.955 305.249" stroke="#42A0F0" stroke-width="6" stroke-linecap="round"/>
<path d="M236.039 318.913L169.535 280.517" stroke="#42A0F0" stroke-width="6" stroke-linecap="round"/>
<path d="M219.86 309.393L225.07 327.672" stroke="#42A0F0" stroke-width="6" stroke-linecap="round"/>
<path d="M219.86 309.393L238.509 304.396" stroke="#42A0F0" stroke-width="6" stroke-linecap="round"/>
<path d="M184.391 288.916L165.955 293.543" stroke="#42A0F0" stroke-width="6" stroke-linecap="round"/>
<path d="M184.391 288.916L179.394 270.267" stroke="#42A0F0" stroke-width="6" stroke-linecap="round"/>
<path d="M100.698 199.252C150.641 199.252 191.129 158.559 191.129 108.362C191.129 58.165 150.641 17.4722 100.698 17.4722C50.7539 17.4722 10.2666 58.165 10.2666 108.362C10.2666 158.559 50.7539 199.252 100.698 199.252Z" fill="#FA9E42"/>
<g filter="url(#filter0_f_340_1262)">
<path d="M94.1638 95.4365C124.219 79.473 141.029 52.3099 131.711 34.7661C122.393 17.2222 90.4742 15.9411 60.4193 31.9046C30.3643 47.8681 13.554 75.0312 22.8723 92.575C32.1906 110.119 64.1089 111.4 94.1638 95.4365Z" fill="#F8E36F"/>
</g>
<path d="M114.53 227.424H161.176L134.361 266.802L165.714 267.396L99.9062 345.284L115.851 285.9H86.6602L114.53 227.424Z" fill="url(#paint0_linear_340_1262)"/>
<g filter="url(#filter1_d_340_1262)">
<path d="M305.345 253.942H113.913C95.3426 253.928 77.4976 246.73 64.1137 233.857C50.7298 220.983 42.8447 203.431 42.1092 184.875C41.3737 166.319 47.8448 148.198 60.1677 134.306C72.4906 120.413 89.71 111.826 108.221 110.342C110.861 91.7018 119.278 74.3585 132.289 60.7518C145.299 47.1451 162.248 37.9598 180.752 34.4882C199.255 31.0166 218.381 33.4334 235.439 41.3986C252.497 49.3637 266.628 62.4764 275.845 78.8918C292.75 73.04 311.015 72.3561 328.31 76.9275C345.605 81.4989 361.146 91.1183 372.952 104.559C384.757 117.999 392.292 134.652 394.594 152.392C396.896 170.132 393.862 188.156 385.879 204.165C381.194 218.63 372.047 231.238 359.751 240.181C347.455 249.124 332.641 253.941 317.437 253.942H305.345Z" fill="url(#paint1_linear_340_1262)"/>
<path d="M317.437 252.941C325.157 252.941 332.748 251.709 339.998 249.278C347.009 246.927 353.59 243.496 359.56 239.081C365.462 234.717 370.635 229.489 374.936 223.542C379.29 217.522 382.652 210.899 384.928 203.857L384.951 203.785L384.985 203.717C388.011 197.67 390.341 191.272 391.911 184.703C393.526 177.942 394.345 170.957 394.345 163.941C394.345 157.902 393.737 151.867 392.537 146.004C391.368 140.29 389.623 134.67 387.352 129.299C385.121 124.026 382.361 118.939 379.146 114.182C375.962 109.469 372.306 105.037 368.278 101.009C364.25 96.9813 359.819 93.3247 355.106 90.1407C350.348 86.9263 345.261 84.1656 339.988 81.9351C334.617 79.6635 328.997 77.9188 323.283 76.7496C317.42 75.5498 311.385 74.9414 305.345 74.9414C295.346 74.9414 285.531 76.5871 276.172 79.8327L275.383 80.1065L274.973 79.3781C267.357 65.8362 256.279 54.4636 242.937 46.4898C236.189 42.4572 228.94 39.3409 221.391 37.2276C213.602 35.0473 205.512 33.9419 197.345 33.9419C186.361 33.9419 175.638 35.9189 165.475 39.8179C155.657 43.5846 146.65 49.0256 138.705 55.9899C130.806 62.9141 124.251 71.0841 119.221 80.2727C114.069 89.687 110.701 99.8492 109.211 110.477L109.1 111.272L108.299 111.335C99.3408 112.036 90.7219 114.395 82.6818 118.345C74.8694 122.184 67.8932 127.375 61.947 133.776C49.7289 146.929 43 164.065 43 182.029C43 191.602 44.8748 200.889 48.5723 209.631C50.3495 213.832 52.5491 217.885 55.1102 221.676C57.6472 225.431 60.5607 228.962 63.7699 232.171C66.9791 235.381 70.5104 238.294 74.2655 240.831C78.0565 243.392 82.109 245.592 86.3106 247.369C95.0525 251.067 104.339 252.941 113.913 252.941H305.345H317.437ZM317.437 253.941H305.345H113.913C74.1966 253.941 42 221.745 42 182.029C42 144.228 71.1646 113.239 108.221 110.338C114.35 66.5993 151.917 32.9419 197.345 32.9419C231.048 32.9419 260.422 51.4651 275.845 78.8879C285.087 75.6826 295.012 73.9414 305.345 73.9414C355.051 73.9414 395.345 114.236 395.345 163.941C395.345 178.398 391.936 192.06 385.879 204.165C376.544 233.05 349.431 253.941 317.437 253.941Z" fill="white" fill-opacity="0.5"/>
</g>
<defs>
<filter id="filter0_f_340_1262" x="0.301758" y="0.722168" width="153.979" height="125.897" filterUnits="userSpaceOnUse" color-interpolation-filters="sRGB">
<feFlood flood-opacity="0" result="BackgroundImageFix"/>
<feBlend mode="normal" in="SourceGraphic" in2="BackgroundImageFix" result="shape"/>
<feGaussianBlur stdDeviation="10" result="effect1_foregroundBlur_340_1262"/>
</filter>
<filter id="filter1_d_340_1262" x="22" y="4.94189" width="413.346" height="281" filterUnits="userSpaceOnUse" color-interpolation-filters="sRGB">
<feFlood flood-opacity="0" result="BackgroundImageFix"/>
<feColorMatrix in="SourceAlpha" type="matrix" values="0 0 0 0 0 0 0 0 0 0 0 0 0 0 0 0 0 0 127 0" result="hardAlpha"/>
<feOffset dx="10" dy="2"/>
<feGaussianBlur stdDeviation="15"/>
<feColorMatrix type="matrix" values="0 0 0 0 0.258824 0 0 0 0 0.627451 0 0 0 0 0.941176 0 0 0 0.596 0"/>
<feBlend mode="normal" in2="BackgroundImageFix" result="effect1_dropShadow_340_1262"/>
<feBlend mode="normal" in="SourceGraphic" in2="effect1_dropShadow_340_1262" result="shape"/>
</filter>
<linearGradient id="paint0_linear_340_1262" x1="118.914" y1="286.354" x2="81.9877" y2="272.816" gradientUnits="userSpaceOnUse">
<stop stop-color="#FFD100"/>
<stop offset="1" stop-color="#FFF0AA"/>
</linearGradient>
<linearGradient id="paint1_linear_340_1262" x1="218.698" y1="32.9443" x2="321.341" y2="281.108" gradientUnits="userSpaceOnUse">
<stop stop-color="white" stop-opacity="0.604"/>
<stop offset="1" stop-color="white" stop-opacity="0.2"/>
</linearGradient>
</defs>
</svg>
